<?xml version="1.0" standalone="no"?>
<!DOCTYPE svg PUBLIC "-//W3C//DTD SVG 1.1//EN" "http://www.w3.org/Graphics/SVG/1.1/DTD/svg11.dtd" >
<!--
2013-9-30: Created.
-->
<svg>
<metadata>
Created by iconfont
</metadata>
<defs>

<font id="iconfont" horiz-adv-x="1024" >
  <font-face
    font-family="iconfont"
    font-weight="500"
    font-stretch="normal"
    units-per-em="1024"
    ascent="896"
    descent="-128"
  />
    <missing-glyph />
    
    <glyph glyph-name="x" unicode="x" horiz-adv-x="1001"
d="M281 543q-27 -1 -53 -1h-83q-18 0 -36.5 -6t-32.5 -18.5t-23 -32t-9 -45.5v-76h912v41q0 16 -0.5 30t-0.5 18q0 13 -5 29t-17 29.5t-31.5 22.5t-49.5 9h-133v-97h-438v97zM955 310v-52q0 -23 0.5 -52t0.5 -58t-10.5 -47.5t-26 -30t-33 -16t-31.5 -4.5q-14 -1 -29.5 -0.5
t-29.5 0.5h-32l-45 128h-439l-44 -128h-29h-34q-20 0 -45 1q-25 0 -41 9.5t-25.5 23t-13.5 29.5t-4 30v167h911zM163 247q-12 0 -21 -8.5t-9 -21.5t9 -21.5t21 -8.5q13 0 22 8.5t9 21.5t-9 21.5t-22 8.5zM316 123q-8 -26 -14 -48q-5 -19 -10.5 -37t-7.5 -25t-3 -15t1 -14.5
t9.5 -10.5t21.5 -4h37h67h81h80h64h36q23 0 34 12t2 38q-5 13 -9.5 30.5t-9.5 34.5q-5 19 -11 39h-368zM336 498v228q0 11 2.5 23t10 21.5t20.5 15.5t34 6h188q31 0 51.5 -14.5t20.5 -52.5v-227h-327z" />
    

    
    <glyph glyph-name="jingxuanshichang" unicode="&#58886;" d="M627.977626 476.225434c119.09417-1.609626 238.185267-3.234714 357.295821-4.859699-4.320563 15.968666-8.659558 31.970099-12.985242 47.956173-94.425395-72.591258-188.872192-145.212314-283.298611-217.802547-9.083187-6.970778-15.551795-17.022669-11.830886-29.056819 35.275878-113.777357 70.511718-227.553587 105.774285-341.313536 12.613837 9.670246 25.217331 19.389645 37.817856 29.076173-98.232218 67.357082-196.461363 134.754099-294.693581 202.115277-6.971085 4.792115-19.035341 4.890419-25.973555 0L208.141824-43.727667c12.618957-9.687654 25.200947-19.373261 37.821952-29.057843 33.73056 114.214298 67.447808 228.459213 101.16311 342.70423 3.554099 11.964518-2.581914 22.152499-11.829862 29.056819-95.382221 71.316275-190.799155 142.631526-286.198784 213.963059-4.321587-16.00041-8.661606-31.986483-12.985242-47.956173 119.059354 3.234714 238.11881 6.450893 357.196595 9.669222 12.030464 0.334643 21.047194 7.725978 24.833638 18.90048 38.34071 112.771379 76.697907 225.542861 115.056026 338.296832l-49.636478 0c39.850189-112.235213 79.714714-224.469402 119.579238-336.723046 11.026534-31.032832 60.796109-17.659187 49.634406 13.689754-39.846093 112.235213-79.728026 224.47145-119.57719 336.723046-8.614502 24.230912-41.238835 24.733286-49.636454 0-38.35607-112.771379-76.713267-225.541837-115.052954-338.295808 8.260506 6.283059 16.522957 12.582605 24.80087 18.884096-119.077786-3.21833-238.137242-6.434509-357.196595-9.668198-27.38176-0.753152-32.77783-33.195008-13.003674-47.974605 95.414886-71.315251 190.831923-142.630502 286.212096-213.945651-3.9552 9.684582-7.874662 19.371213-11.830886 29.055795-33.732608-114.247066-67.446784-228.458189-101.179494-342.70423-6.049997-20.51113 18.950349-42.393498 37.80352-29.072179 97.058406 68.499046 194.083123 136.983859 291.10569 205.485978-15.284736-10.792858-34.48576 7.003546-12.482765-8.079053 11.142246-7.640986 22.268006-15.282074 33.380557-22.919987 33.763328-23.160525 67.547136-46.316851 101.29408-69.476352 49.132954-33.679053 98.231194-67.35913 147.331379-101.074022 18.783539-12.868096 44.272128 8.344064 37.83936 29.087437-35.254374 113.779405-70.532198 227.520922-105.772237 341.297152-3.956224-9.685606-7.909478-19.371213-11.84727-29.054771 94.426419 72.58921 188.871168 145.194906 283.312947 217.800499 19.222528 14.779597 14.782259 47.586816-13.00265 47.956173-119.110554 1.62601-238.202675 3.250995-357.295821 4.860723C594.746368 528.15319 594.798592 476.677734 627.977626 476.225434"  horiz-adv-x="1024" />

    
    <glyph glyph-name="special" unicode="&#58881;" d="M512.537805 891.906765C232.773837 891.906765 5.172019 664.314266 5.172019 384.560742c0-279.736115 227.601818-507.32759 507.365786-507.32759 279.76704 0 507.368858 227.591475 507.368858 507.32759C1019.90656 664.314266 792.303718 891.906765 512.537805 891.906765zM512.537805-70.84318699999994c-251.129651 0-455.438029 204.298957-455.438029 455.404032 0 251.120333 204.307354 455.422464 455.438029 455.422464 251.130675 0 455.443149-204.299981 455.443149-455.422464C967.979827 133.45679399999995 763.668378-70.84318699999994 512.537805-70.84318699999994zM490.074214 368.368026c-2.18071 14.180966-15.551795 23.882957-29.614694 21.702246l-50.692608-7.808819L409.766912 491.654882l51.927754 0c14.33303 0 25.964339 11.629875 25.964339 25.962291 0 14.33344-11.631411 25.962291-25.964339 25.962291l-51.927754 0 0 86.539982c0 14.334464-11.619123 25.962291-25.962291 25.962291-14.344294 0-25.964339-11.627827-25.964339-25.962291l0-86.539982-34.615774 0 0 51.924603c0 14.33344-11.621171 25.962291-25.964339 25.962291-14.342246 0-25.963315-11.628851-25.963315-25.962291l0-61.676711c0-19.808154-11.89335-31.961907-20.418867-31.961907-14.34327 0-25.964339-11.628851-25.964339-25.962291 0-14.332416 11.621171-25.962291 25.964339-25.962291 26.58048 0 49.602662 16.885555 62.177587 41.715098l44.784784 0 0-117.371174-107.156787-16.496742c-14.174413-2.18071-23.894118-15.431475-21.712384-29.612442 1.968947-12.829184 13.031322-22.00617 25.624678-22.00617 1.310925 0 2.646426 0.101274 3.982848 0.303923l99.263795 15.280026 0-176.258353c0-14.335488 11.620147-25.961267 25.964339-25.961267 14.34327 0 25.962291 11.625779 25.962291 25.961267L409.769138 329.72997899999996l58.605056 9.025536C482.536243 340.936192 492.255027 354.18798100000004 490.074214 368.368026zM755.944141 491.654861L652.091754 491.654861l0 51.924603 86.543528 0c14.334054 0 25.963315 11.629875 25.963315 25.962291 0 14.33344-11.629363 25.962291-25.963315 25.962291l-86.543528 0 0 69.231781c0 14.334464-11.629363 25.962291-25.962291 25.962291-14.335078 0-25.963315-11.626803-25.963315-25.962291l0-69.231781-69.235641 0c-14.335078 0-25.963315-11.628851-25.963315-25.962291 0-14.332416 11.628339-25.962291 25.963315-25.962291l69.235641 0 0-51.924603-86.545574 0c-14.332006 0-25.96137-11.628851-25.96137-25.961267 0-14.33344 11.629363-25.963315 25.96137-25.963315l242.32372 0c14.335078 0 25.963315 11.629875 25.963315 25.963315C781.907558 480.02601 770.278195 491.654861 755.944141 491.654861zM755.944141 370.498458l-51.924684 0 0 34.616402c0 14.33344-11.629363 25.962291-25.964339 25.962291-14.33303 0-25.962291-11.628851-25.962291-25.962291l0-34.616402L513.619448 370.498458c-14.332006 0-25.96137-11.628851-25.96137-25.963315 0-14.332416 11.629363-25.961267 25.96137-25.961267l138.471282 0 0-123.607202c0-23.343616 0-33.01079-48.006246-33.01079-14.33303 0-25.960346-11.630899-25.960346-25.962291 0-14.334464 11.627315-25.963315 25.960346-25.963315 29.903258 0 99.932979 0 99.932979 84.936499L704.017463 318.57287199999996l51.924684 0c14.335078 0 25.963315 11.628851 25.963315 25.961267C781.907558 358.86858199999995 770.278195 370.498458 755.944141 370.498458zM539.583795 292.61055999999996c-14.33303 0-25.964339-11.628851-25.964339-25.961267l0-51.924603c0-14.334464 11.631411-25.963315 25.964339-25.963315 14.335078 0 25.963315 11.628851 25.963315 25.963315l0 51.924603C565.547213 280.981709 553.918874 292.61055999999996 539.583795 292.61055999999996z"  horiz-adv-x="1024" />

    
    <glyph glyph-name="line" unicode="&#58880;" d="M900.928061 595.6995400000001c-41.065937 0-74.470067-33.429367-74.470067-74.491575 0-9.996678 1.992459-19.534915 5.581341-28.254507L611.776954 287.77442499999995c-11.809437 7.890714-25.986902 12.502755-41.225579 12.502755-7.739582 0-15.275517-1.177825-22.450211-3.444449l-70.117767 88.430028c5.313223 10.368138 8.145851 21.920242 8.145851 33.919531 0 41.062208-33.379569 74.491575-74.44346 74.491575-41.06389 0-74.444483-33.428344-74.444483-74.491575 0-3.823072 0.294724-7.602142 0.858589-11.313673L160.865209 268.77776900000003c-11.51983 7.330966-25.1672 11.598152-39.800055 11.598152-41.06389 0-74.470067-33.429367-74.470067-74.491575 0-41.086767 33.406176-74.516134 74.470067-74.516134 41.03933 0 74.418899 33.429367 74.418899 74.516134 0 7.618515-1.154337 14.973016-3.288018 21.900799L363.62629 362.30283899999995c0.463577-0.391926 0.9292-0.781806 1.404034-1.163499 13.150023-10.630105 29.72724-16.47523 46.656488-16.47523 9.850749 0 19.414961 1.915629 28.273062 5.561669l67.388498-84.989673c-7.283169-11.645225-11.240456-25.213241-11.240456-39.451524 0-41.085744 33.380593-74.516134 74.444483-74.516134 41.062867 0 74.44346 33.43039 74.44346 74.516134 0 6.898107-0.961947 13.573133-2.724153 19.917632l224.667895 209.261001c10.197664-5.257747 21.747171-8.247848 33.989485-8.247848 41.037283 0 74.417876 33.429367 74.417876 74.491575C975.345937 562.270173 941.965344 595.6995400000001 900.928061 595.6995400000001zM121.065153 182.960241c-12.646536 0-22.900484 10.278087-22.900484 22.924105 0 12.620435 10.253948 22.899546 22.900484 22.899546 12.596392 0 22.874901-10.279111 22.874901-22.899546C143.940054 193.23832800000002 133.660522 182.960241 121.065153 182.960241zM397.377335 401.295921c-5.466726 4.408403-8.591008 10.908444-8.591008 17.886369 0 12.620435 10.278509 22.899546 22.900484 22.899546 12.620952 0 22.874901-10.278087 22.874901-22.899546 0-6.04774-2.31993-11.721973-6.505424-16.011672-0.064471-0.063445-0.132012-0.122797-0.195459-0.186242C418.790894 393.940396 402.818477 396.912078 397.377335 401.295921zM570.551375 202.86149999999998c-12.621976 0-22.875924 10.278087-22.875924 22.923082 0 6.882757 2.994317 13.228279 8.278886 17.624403 0.340775 0.24457 0.68769 0.477884 1.018231 0.741897 0.199553 0.157589 0.389896 0.323365 0.583308 0.488117 2.840814 1.973958 7.224838 4.046153 12.995498 4.046153 12.595369 0 22.875924-10.278087 22.875924-22.899546C593.427299 213.139587 583.146744 202.86149999999998 570.551375 202.86149999999998zM900.928061 498.308419c-12.64756 0-22.900484 10.278087-22.900484 22.899546 0 12.620435 10.252925 22.899546 22.900484 22.899546 12.595369 0 22.873877-10.278087 22.873877-22.899546C923.801938 508.586506 913.52343 498.308419 900.928061 498.308419z"  horiz-adv-x="1024" />

    
    <glyph glyph-name="biaojidian1" unicode="&#58887;" d="M517.045618 301.364955c-134.120006 10.161431-208.554255-13.601786-248.054469-36.356023l0-245.394966c0-11.189853-9.055608-20.244067-20.244896-20.244067-11.169845 0-20.244896 9.055237-20.244896 20.244067L228.501357 731.858616c-23.52575 8.362458-40.488769 30.602995-40.488769 57.014528 0 33.54807 27.183196 60.731176 60.733665 60.731176 33.550468 0 60.733665-27.182083 60.733665-60.731176 0-26.411533-16.963019-48.65207-40.488769-57.014528L268.991149 643.550361c57.530585 7.15598 166.679873 1.977028 260.885208-110.944811 135.067626-161.890111 407.340652-100.012831 407.340652-100.012831S755.649467 283.275971 517.045618 301.364955zM248.746253 809.117211c-11.169845 0-20.244896-9.055237-20.244896-20.244067 0-11.189853 9.075051-20.244067 20.244896-20.244067 11.190312 0 20.244896 9.054213 20.244896 20.244067C268.991149 800.062997 259.936564 809.117211 248.746253 809.117211zM498.777831 506.667807c-67.928825 81.449034-143.925727 98.549503-195.703049 98.549503-13.008801 0-24.515328-1.087774-33.926037-2.451842l0-292.326858c40.133667 18.424628 99.700715 33.825386 186.728286 33.825386 20.421935 0 42.050398-0.850367 64.232492-2.530636 12.297574-0.929162 24.791632-1.403976 37.207915-1.403976 79.197935 0 150.865051 19.09694 208.691384 42.267663C676.649039 390.048763 571.313769 419.722596 498.777831 506.667807zM188.013611 34.401764c-36.277691-6.999414-60.733665-20.046568-60.733665-35.031864 0-18.917862 38.96705-34.753525 91.574307-39.20286 3.103815-0.77055 6.306895-1.284249 9.648126-1.284249l40.489792 0c3.340208 0 6.544311 0.5137 9.66757 1.284249 52.587814 4.449335 91.554864 20.283975 91.554864 39.20286 0 14.986319-24.45495 28.033473-60.733665 35.031864l0 39.99183c59.329631-11.999288 101.222433-41.039695 101.222433-75.023694 0-44.717458-72.516495-80.974219-161.956098-80.974219-89.43858 0-161.956098 36.256762-161.956098 80.974219 0 33.983999 41.892802 63.025429 101.222433 75.023694L188.013611 34.401764z"  horiz-adv-x="1024" />

    
    <glyph glyph-name="effect" unicode="&#58946;" d="M934.940672 433.324032l-69.044224 0c-10.846208 180.87936-155.60704 325.638144-336.4864 336.4864L529.410048 838.854656c0 12.048384-9.76896 21.815296-21.817344 21.815296s-21.817344-9.76896-21.817344-21.815296l0-69.044224c-180.87936-10.846208-325.640192-155.60704-336.4864-336.4864L80.246784 433.324032c-12.048384 0-21.815296-9.76896-21.815296-21.817344s9.76896-21.817344 21.815296-21.817344l69.042176 0c10.846208-180.877312 155.60704-325.640192 336.4864-336.4864l0-69.044224c0-12.048384 9.76896-21.815296 21.817344-21.815296s21.817344 9.76896 21.817344 21.815296l0 69.044224c180.877312 10.846208 325.640192 155.60704 336.4864 336.4864l69.044224 0c12.048384 0 21.815296 9.76896 21.815296 21.817344S946.987008 433.324032 934.940672 433.324032zM820.426752 433.324032L529.410048 433.324032 529.410048 724.338688C685.215744 713.629696 809.715712 589.129728 820.426752 433.324032zM485.77536 724.338688l0-291.014656L194.760704 433.324032C205.469696 589.129728 329.969664 713.629696 485.77536 724.338688zM194.760704 389.689344l291.016704 0 0-291.016704C329.969664 109.38368000000003 205.469696 233.883648 194.760704 389.689344zM529.410048 98.67468799999995L529.410048 389.689344l291.016704 0C809.71776 233.883648 685.215744 109.38163199999997 529.410048 98.67468799999995z"  horiz-adv-x="1024" />

    
    <glyph glyph-name="airport" unicode="&#58916;" d="M644.427078-60.858834c-1.959631 0-3.929496 0.322341-5.829775 0.981351l-93.384877 32.326243c-9.302877 3.219321-14.233166 13.371542-11.012821 22.674419 3.219321 9.3039 13.372565 14.233166 22.674419 11.012821l69.729108-24.136723 0 27.361161-56.793494 51.671846c-4.507664 4.100388-6.607488 10.218736-5.568832 16.223496 1.481747 8.56405 2.202155 15.871479 2.202155 22.339798 0 0.37146 0.01228 0.74292 0.034792 1.113357l10.960633 175.081551c0.372483 5.954619 3.700275 11.328 8.863878 14.31503 5.166673 2.989077 11.482519 3.192715 16.82827 0.548492l311.807538-154.23271 0 64.716954L589.587076 485.94688c-3.866051 3.385097-6.083555 8.273431-6.083555 13.411451L583.503521 714.874803c0 22.372543-9.601682 51.562353-24.461111 74.362638-15.458063 23.719214-34.08326 37.323047-51.099818 37.323047-17.016559 0-35.642778-13.602809-51.099818-37.322024-14.859429-22.800285-24.460088-51.990095-24.460088-74.362638l0-215.515449c0-5.13802-2.217505-10.027377-6.083555-13.411451L100.941993 201.139276l0-64.501036 306.089303 153.963581c5.323239 2.677992 11.632945 2.517333 16.813944-0.425695 5.180999-2.943029 8.5487-8.280594 8.975419-14.223956l13.57825-189.452863c0.030699-0.423649 0.045025-0.849344 0.045025-1.274016 0-3.140527 0.372483-6.514367 0.76748-10.085706l0.146333-1.332345c0.618077-5.675256-1.51961-11.304464-5.749958-15.138792l-54.42761-49.327452 0-27.220968L443.965487 2.0663110000000415c16.090467 6.587022 51.374064 9.872858 73.997318-23.608697 5.511527-8.156774 3.367701-19.237133-4.790096-24.74866-8.156774-5.509481-19.237133-3.367701-24.74866 4.790096-5.106298 7.557116-11.355629 11.511171-19.105127 12.087293-6.149047 0.459464-11.268648-1.313925-12.056594-1.604544-0.410346-0.186242-0.512676-0.209778-0.997724-0.38067l-81.002872-28.452006c-5.453199-1.914606-11.496845-1.067308-16.213263 2.27481-4.715395 3.342118-7.518231 8.762571-7.518231 14.543228l0 60.274782c0 5.031597 2.12643 9.827833 5.854335 13.20679l53.638641 48.613184c-0.12382 1.769296-0.209778 3.598968-0.226151 5.482875l-11.624758 162.198126L91.127464 91.79491499999995c-5.52483-2.7793-12.096503-2.494821-17.362436 0.750083s-8.471952 8.987698-8.471952 15.173584l0 101.504812c0 5.13802 2.217505 10.027377 6.084579 13.411451l325.355089 284.808628L396.732743 714.874803c0 29.250184 11.588943 65.203024 30.242791 93.826945 22.487154 34.504862 51.241035 53.507658 80.967056 53.507658 29.723975 0 58.477856-19.002796 80.966033-53.507658 18.654872-28.624944 30.244838-64.576761 30.244838-93.826945l0-207.430306 325.350996-284.808628c3.866051-3.385097 6.083555-8.273431 6.083555-13.411451l0-101.504812c0-6.163373-3.184529-11.890818-8.420787-15.142885-5.234211-3.252067-11.780301-3.567245-17.306154-0.833995L611.344612 246.819664l-9.253758-147.804301c-0.025583-5.622044-0.436952-11.579733-1.24741-18.022469l55.579853-50.567699c3.712555-3.377934 5.828752-8.16496 5.828752-13.184277l0-60.274782c0-5.76633-2.789533-11.175527-7.485485-14.519692C651.707902-59.73114999999996 648.085398-60.858834 644.427078-60.858834z"  horiz-adv-x="1024" />

    
    <glyph glyph-name="search3" unicode="&#58915;" d="M739.096671-14.19982200000004L113.777776-14.19982200000004 113.777776 782.602752l284.455631 0L398.233407 896 93.945569 896C43.872603 896 0 855.395458 0 805.322493l0-842.644967c0-50.072966 40.604542-90.677507 90.677507-90.677507l672.459559 0c50.028198 0 90.655123 40.582158 90.655123 90.677507l0 119.194699-114.717903 0L739.074287-14.19982200000004zM905.006738 249.66254700000002c54.527378 61.824556 87.924278 142.697879 87.924278 231.405596 0 193.263292-157.202699 350.488375-350.465991 350.488375-193.240908 0-350.488375-157.225083-350.488375-350.488375s157.247467-350.465991 350.488375-350.465991c63.36905 0 122.731368 17.168513 174.080221 46.715368l174.326444-185.943731 83.201258 77.963406L905.006738 249.66254700000002zM406.023032 481.068143c0 130.364306 106.055302 236.419608 236.441992 236.419608s236.419608-106.055302 236.419608-236.419608S772.806946 244.62615100000005 642.44264 244.62615100000005 406.023032 350.703837 406.023032 481.068143z"  horiz-adv-x="1075" />

    
    <glyph glyph-name="huifu" unicode="&#59072;" d="M990.007709 4c-11.2 0-22 5.9-27.8 16.2C841.707709 231.7 672.307709 256.8 448.007709 258.6l0-198.6c0-12.6-7.3-24-18.8-29.1-11.4-5.2-24.8-3.2-34.3 5.1l-384 336c-6.8 6-10.8 14.5-10.9 23.5-0.2 9 3.5 17.7 10.1 23.9l384 360c9.3 8.7 22.9 11.1 34.6 6 11.7-5.1 19.3-16.6 19.3-29.4l0-168.8c100.4-5 191.9-33.7 272.4-85.6 70.8-45.6 133-108.9 184.8-188.2 87.3-133.6 114.9-265.6 116.1-271.1 3.1-15.4-5.4-30.8-20.1-36.3C997.607709 4.7 993.807709 4 990.007709 4zM79.707709 396.9 384.007709 130.6 384.007709 290.8c0 17.7 14.3 32 32 32 136.7 0 247.4-7.2 343.5-42.1 50.9-18.5 95.2-43.8 135.2-77.1-12.5 24.9-27 50.8-44 76.6C744.207709 442 598.007709 524 416.007709 524c-17.7 0-32 14.3-32 32l0 126.2L79.707709 396.9z"  horiz-adv-x="1025" />

    
    <glyph glyph-name="resetpassword" unicode="&#58890;" d="M636.172598 448.069989c37.402156 0 67.701422-33.050836 67.701422-73.844462l0-172.261084c0-40.761631-30.299266-73.812467-67.701422-73.812467l-248.217216 0c-37.370161 0-67.701422 33.050836-67.701422 73.812467l0 172.261084c0 40.761631 30.299266 73.844462 67.701422 73.844462L448.009998 448.069989l0 0 127.980003 0 0 0L636.172598 448.069989zM511.520075 383.760037c-35.322481 0-63.990002-27.387721-63.990002-61.206436 0-22.588471 17.53326-39.865771 36.602281-50.488111l0-79.539572 54.807436 0 0 79.539572c19.06902 10.62234 36.602281 27.899641 36.602281 50.488111C575.510077 356.37231699999995 546.842556 383.760037 511.520075 383.760037zM512 575.890017c-60.150601 0-63.830027-50.584096-63.990002-63.990002l0-63.798032-64.405937 0 0 57.622996c0 0 0.031995 134.379003 128.139978 134.379003 128.139978 0 128.139978-134.379003 128.139978-134.379003l0-57.622996L575.990002 448.101984l0 63.798032C575.862022 525.081956 572.150601 575.890017 512 575.890017zM512-128c-282.739822 0-511.920012 229.180191-511.920012 511.920012s229.180191 511.920012 511.920012 511.920012c91.121762 0 176.612404-23.964256 250.712826-65.717732l47.608561 65.877707L895.556069 671.93901l-223.453085 32.794876 52.759756 73.012592C661.512639 812.077113 589.107952 831.818028 512 831.818028c-247.385346 0-447.930011-200.544665-447.930011-447.930011s200.544665-447.930011 447.930011-447.930011 447.930011 200.544665 447.930011 447.930011c0 60.406561-12.126105 117.933573-33.786721 170.533354l59.158756 24.348196C1010.066177 518.682956 1023.920012 452.933229 1023.920012 383.888017 1023.920012 101.18019100000004 794.739822-128 512-128z"  horiz-adv-x="1024" />

    
    <glyph glyph-name="former" unicode="&#58928;" d="M896 576L192 896 128 896C89.6 896 64 870.4 64 832l0-896c0-38.4 25.6-64 64-64s64 25.6 64 64l0 192 704 320c38.4 0 64 25.6 64 64S934.4 576 896 576zM192 256L192 768l563.2-256L192 256z"  horiz-adv-x="1024" />

    
    <glyph glyph-name="config2" unicode="&#58957;" d="M929.792 474.112L887.808 486.4c-8.192 33.792-21.504 64.512-37.888 94.208l21.504 38.912c8.192 13.312 13.312 29.696 0 43.008l-84.992 84.992c-4.096 4.096-13.312 8.192-17.408 8.192-8.192 0-17.408-4.096-25.6-8.192l-37.888-25.6c-33.792 25.6-64.512 37.888-98.304 47.104l-13.312 43.008c-4.096 17.408-13.312 29.696-29.696 29.696L439.296 841.728c-12.288 0-25.6-13.312-29.696-29.696l-8.192-43.008c-33.792-8.192-68.608-21.504-98.304-38.912l-38.912 21.504c-4.096 4.096-17.408 8.192-21.504 8.192-8.192 0-13.312 0-17.408-8.192l-84.992-84.992c-13.312-13.312-8.192-29.696 0-43.008l21.504-38.912c-21.504-29.696-33.792-64.512-43.008-98.304l-43.008-13.312c-17.408-4.096-29.696-13.312-29.696-29.696l0-123.904c0-17.408 17.408-25.6 29.696-29.696l43.008-13.312c8.192-29.696 21.504-64.512 38.912-94.208l-21.504-38.912c-8.192-12.288-13.312-29.696 0-43.008l84.992-84.992c4.096-4.096 13.312-8.192 17.408-8.192 8.192 0 17.408 4.096 25.6 8.192l38.912 25.6c29.696-17.408 59.392-29.696 94.208-38.912l13.312-43.008c4.096-17.408 13.312-29.696 29.696-29.696L563.2-70.65599999999995c17.408 0 25.6 17.408 29.696 29.696l13.312 43.008c33.792 8.192 63.488 21.504 94.208 38.912l38.912-25.6c8.192-4.096 17.408-8.192 25.6-8.192s13.312 0 17.408 8.192l84.992 84.992c12.288 13.312 8.192 29.696 0 43.008l-21.504 38.912c17.408 29.696 29.696 59.392 38.912 94.208l43.008 13.312c17.408 4.096 29.696 13.312 29.696 29.696L957.44 443.392C960.512 460.8 947.2 474.112 929.792 474.112zM921.6 332.79999999999995C917.504 332.79999999999995 917.504 332.79999999999995 921.6 332.79999999999995l-43.008-13.312c-12.288-4.096-25.6-17.408-29.696-29.696-8.192-29.696-21.504-59.392-33.792-84.992-8.192-13.312-8.192-29.696 0-43.008l21.504-38.912-72.704-72.704 0 0-38.912 21.504C716.8 76.79999999999995 712.704 76.79999999999995 704.512 76.79999999999995s-13.312 0-21.504-4.096c-25.6-17.408-55.296-25.6-84.992-33.792-13.312-4.096-25.6-17.408-29.696-29.696l-13.312-43.008 0 0-102.4 0-13.312 43.008c-4.096 13.312-17.408 25.6-29.696 29.696-29.696 8.192-59.392 21.504-84.992 33.792C315.392 76.79999999999995 311.296 76.79999999999995 303.104 76.79999999999995s-13.312 0-21.504-4.096l-38.912-21.504 0 0L171.008 128l21.504 38.912c8.192 13.312 8.192 29.696 0 43.008-17.408 25.6-25.6 55.296-33.792 84.992-4.096 13.312-17.408 25.6-29.696 29.696l-43.008 13.312 0 0 0 102.4 43.008 13.312c12.288 4.096 25.6 17.408 29.696 29.696 8.192 29.696 21.504 59.392 33.792 84.992 8.192 13.312 8.192 29.696 0 43.008L171.008 640l0 0 72.704 72.704 38.912-21.504c8.192-4.096 17.408-4.096 21.504-4.096 8.192 0 13.312 0 21.504 4.096 25.6 17.408 55.296 25.6 84.992 33.792 13.312 4.096 25.6 17.408 29.696 29.696l13.312 43.008 102.4 0 0 0 13.312-43.008c4.096-13.312 17.408-25.6 29.696-29.696 29.696-8.192 59.392-21.504 84.992-33.792 8.192-4.096 13.312-4.096 21.504-4.096s12.288 0 21.504 4.096l38.912 21.504 68.608-72.704 0 0-21.504-33.792c-8.192-13.312-8.192-29.696 0-43.008 17.408-25.6 25.6-55.296 33.792-84.992 4.096-13.312 17.408-25.6 29.696-29.696l43.008-13.312 0-102.4L921.6 332.79999999999995zM503.808 635.904c-136.192 0-251.904-110.592-251.904-251.904 0-136.192 110.592-251.904 251.904-251.904S755.712 243.712 755.712 384C750.592 520.192 640 635.904 503.808 635.904zM503.808 592.896c72.704 0 132.096-33.792 171.008-90.112L563.2 443.392c-17.408 17.408-37.888 25.6-59.392 25.6-21.504 0-47.104-8.192-59.392-25.6l-110.592 59.392C370.688 555.008 431.104 592.896 503.808 592.896zM482.304 175.10400000000004C375.808 183.29600000000005 294.912 273.408 294.912 384c0 29.696 4.096 55.296 17.408 80.896l110.592-59.392c0-8.192-4.096-13.312-4.096-21.504 0-37.888 25.6-72.704 64.512-80.896C482.304 303.10400000000004 482.304 175.10400000000004 482.304 175.10400000000004zM460.8 384c0 21.504 17.408 43.008 43.008 43.008 25.6 0 43.008-17.408 43.008-43.008 0-21.504-17.408-43.008-43.008-43.008C478.208 340.99199999999996 460.8 362.496 460.8 384zM712.704 384c0-106.496-80.896-196.608-187.392-208.896L525.312 303.10400000000004c33.792 8.192 64.512 43.008 64.512 80.896 0 8.192 0 13.312-4.096 21.504l110.592 59.392C704.512 439.296 712.704 413.696 712.704 384z"  horiz-adv-x="1024" />

    
    <glyph glyph-name="approve" unicode="&#58939;" d="M672.461063 329.384102L285.033243 329.384102c-14.136975 0-25.638937-11.499915-25.638937-25.63689 0-14.137998 11.501962-25.640983 25.638937-25.640983l387.42782 0c14.137998 0 25.640983 11.501962 25.640983 25.640983C698.102047 317.884187 686.600085 329.384102 672.461063 329.384102zM672.461063 182.427098L285.033243 182.427098c-14.136975 0-25.638937-11.499915-25.638937-25.63689 0-14.137998 11.501962-25.640983 25.638937-25.640983l387.42782 0c14.137998 0 25.640983 11.501962 25.640983 25.640983C698.102047 170.927183 686.600085 182.427098 672.461063 182.427098zM792.699542 543.139463c-14.137998 0-25.640983-11.501962-25.640983-25.63996l0-494.299873c0-0.130983 0-0.280386-0.001023-0.433882-0.899486-0.279363-2.665713-0.644683-5.764284-0.644683L198.001051 22.12106600000004c-4.312212 0-7.564279 2.971681-7.564279 6.913457L190.436772 735.870999c0 4.493338 0.974188 8.28878 1.811252 9.821693l373.337917 0c14.136975 0 25.63996 11.501962 25.63996 25.63996 0 14.136975-11.501962 25.638937-25.63996 25.638937l-374.069581 0c-30.336936 0-52.357462-25.696242-52.357462-61.099566l0-706.836477c0-32.086789 26.396183-58.19133 58.84113-58.19133l563.293223 0c34.119075 0 57.042157 21.041222 57.042157 52.356438L818.335409 517.49848C818.336432 531.636478 806.836517 543.139463 792.699542 543.139463zM876.184955 786.589125c-10.002818 10.001795-26.218128 10.001795-36.220946 0L669.787164 616.410234l-76.03472 76.03472c-10.002818 10.001795-26.218128 10.001795-36.220946 0-10.000771-10.001795-10.000771-26.218128 0-36.220946l94.145194-94.145194c4.803399-4.803399 11.31879-7.501858 18.110473-7.501858s13.307074 2.698458 18.110473 7.501858l188.287317 188.288341C886.186749 760.370996 886.186749 776.58733 876.184955 786.589125zM485.42832 636.6553240000001l-200.394053 0c-14.136975 0-25.638937-11.501962-25.638937-25.63996 0-14.136975 11.501962-25.637913 25.638937-25.637913l200.394053 0c14.137998 0 25.63996 11.500938 25.63996 25.637913C511.06828 625.153362 499.565295 636.6553240000001 485.42832 636.6553240000001zM672.461063 489.699344L285.033243 489.699344c-14.136975 0-25.638937-11.500938-25.638937-25.638937s11.501962-25.638937 25.638937-25.638937l387.42782 0c14.137998 0 25.640983 11.501962 25.640983 25.638937S686.600085 489.699344 672.461063 489.699344z"  horiz-adv-x="1024" />

    
    <glyph glyph-name="other" unicode="&#58986;" d="M826.863642 514.2157139999999c-71.958892 0-130.501216-58.542324-130.501216-130.500193s58.542324-130.500193 130.501216-130.500193c71.957869 0 130.500193 58.542324 130.500193 130.500193S898.822534 514.2157139999999 826.863642 514.2157139999999zM826.863642 304.437943c-43.714617 0-79.278601 35.563984-79.278601 79.277578s35.563984 79.277578 79.278601 79.277578c43.713594 0 79.277578-35.563984 79.277578-79.277578S870.577237 304.437943 826.863642 304.437943zM504.12617 514.2157139999999c-71.957869 0-130.500193-58.542324-130.500193-130.500193s58.541301-130.500193 130.500193-130.500193 130.500193 58.542324 130.500193 130.500193S576.084039 514.2157139999999 504.12617 514.2157139999999zM504.12617 304.437943c-43.713594 0-79.276554 35.563984-79.276554 79.277578s35.56296 79.277578 79.276554 79.277578 79.277578-35.563984 79.277578-79.277578S547.838741 304.437943 504.12617 304.437943zM197.53033 514.2157139999999c-71.957869 0-130.500193-58.542324-130.500193-130.500193s58.542324-130.500193 130.500193-130.500193 130.500193 58.542324 130.500193 130.500193S269.489222 514.2157139999999 197.53033 514.2157139999999zM197.53033 304.437943c-43.713594 0-79.277578 35.563984-79.277578 79.277578s35.563984 79.277578 79.277578 79.277578 79.277578-35.563984 79.277578-79.277578S241.243925 304.437943 197.53033 304.437943z"  horiz-adv-x="1024" />

    
    <glyph glyph-name="stop" unicode="&#59140;" d="M512-128c-281.6 0-512 230.4-512 512s230.4 512 512 512 512-230.4 512-512S793.6-128 512-128zM512 838.4C262.4 838.4 57.6 633.6 57.6 384s204.8-454.4 454.4-454.4 454.4 204.8 454.4 454.4S761.6 838.4 512 838.4zM320 576l384 0 0-384-384 0 0 384Z"  horiz-adv-x="1024" />

    
    <glyph glyph-name="wodejihua" unicode="&#59029;" d="M720.293 642.804c-22.232 0-40.762-9.478-50.846-26.012l-213.634-350.638c-9.569-15.712-12.767-34.452-9.251-54.176l17.091-96.296 92.896 38.894c15.344 6.433 27.734 16.851 35.83 30.132l244.784 401.76-69.651 42.444c-14.708 8.959-31.478 13.892-47.219 13.892zM548.638 211.365c-2.479-4.068-6.481-7.28-11.882-9.544l-33.85-14.173-5.911 33.3c-0.903 5.062-1.19 12.392 2.565 18.558l170.549 279.921 48.295-29.427-169.768-278.635zM745.056 533.744l-48.295 29.427 16.376 26.878c0.44 0.374 2.647 1.531 7.156 1.531 6.379 0 13.877-2.338 20.566-6.413l25.909-15.788-21.713-35.636zM373.213 201.221h-150.074c-14.145 0-25.611-11.466-25.611-25.611s11.467-25.611 25.611-25.611h150.074c14.145 0 25.611 11.466 25.611 25.611s-11.466 25.611-25.611 25.611zM373.213 410.039h-150.074c-14.145 0-25.611-11.467-25.611-25.611s11.467-25.612 25.611-25.612h150.074c14.145 0 25.611 11.467 25.611 25.612s-11.466 25.611-25.611 25.611zM373.213 618.856h-150.074c-14.145 0-25.611-11.467-25.611-25.611s11.467-25.611 25.611-25.611h150.074c14.145 0 25.611 11.467 25.611 25.611s-11.466 25.611-25.611 25.611zM883.898 829.601h-742.689c-39.419 0-71.488-32.069-71.488-71.487v-747.358c0-39.419 32.069-71.488 71.488-71.488h742.689c39.418 0 71.485 32.069 71.485 71.488v747.357c0 39.419-32.068 71.488-71.485 71.488zM904.159 10.754c0-11.175-9.090-20.266-20.262-20.266l-742.688-0c-11.175 0-20.266 9.091-20.266 20.266v747.358c0 11.173 9.091 20.265 20.266 20.265h742.689c11.172 0 20.262-9.090 20.262-20.265l-0-747.358z"  horiz-adv-x="1024" />

    
    <glyph glyph-name="detail" unicode="&#58894;" d="M736-128l-448 0C166.4-128 64-25.600000000000023 64 96l0 576C64 793.6 166.4 896 288 896l448 0C857.6 896 960 793.6 960 672l0-576C960-25.600000000000023 857.6-128 736-128zM288 832C198.4 832 128 761.6 128 672l0-576C128 6.399999999999977 198.4-64 288-64l448 0c89.6 0 160 70.4 160 160l0 576C896 761.6 825.6 832 736 832L288 832zM736 608l-448 0C268.8 608 256 620.8 256 640s12.8 32 32 32l448 0C755.2 672 768 659.2 768 640S755.2 608 736 608zM736 416l-448 0C268.8 416 256 428.8 256 448s12.8 32 32 32l448 0C755.2 480 768 467.2 768 448S755.2 416 736 416zM736 224l-448 0C268.8 224 256 236.79999999999995 256 256s12.8 32 32 32l448 0c19.2 0 32-12.8 32-32S755.2 224 736 224z"  horiz-adv-x="1024" />

    
    <glyph glyph-name="search" unicode="&#59283;" d="M336 448l-32 0C295.168 448 288 440.832 288 432S295.168 416 304 416l32 0c8.832 0 16 7.168 16 16S344.832 448 336 448zM624 320l-224 0c-8.832 0-16-7.168-16-16s7.168-16 16-16l224 0c8.832 0 16 7.168 16 16S632.832 320 624 320zM336 576l-32 0C295.168 576 288 568.832 288 560S295.168 544 304 544l32 0c8.832 0 16 7.168 16 16S344.832 576 336 576zM954.624-35.42399999999998l-191.104 191.104c-2.048 2.048-4.608 3.232-7.2 3.968C822.944 231.03999999999996 864 326.624 864 432 864 652.896 684.896 832 464 832S64 652.896 64 432 243.104 32 464 32c105.376 0 200.928 41.056 272.416 107.68 0.704-2.624 1.888-5.152 3.936-7.2l191.104-191.104c6.4-6.4 16.768-6.4 23.2 0S961.024-41.855999999999995 954.624-35.42399999999998zM464 64C260.736 64 96 228.736 96 432S260.736 800 464 800 832 635.264 832 432 667.264 64 464 64zM624 448l-224 0c-8.832 0-16-7.168-16-16s7.168-16 16-16l224 0c8.832 0 16 7.168 16 16S632.832 448 624 448zM624 576l-224 0c-8.832 0-16-7.168-16-16s7.168-16 16-16l224 0c8.832 0 16 7.168 16 16S632.832 576 624 576zM336 320l-32 0C295.168 320 288 312.832 288 304S295.168 288 304 288l32 0c8.832 0 16 7.168 16 16S344.832 320 336 320z"  horiz-adv-x="1024" />

    
    <glyph glyph-name="circle-l" unicode="&#59438;" d="M480 416m-416 0a6.5 6.5 0 1 1 832 0 6.5 6.5 0 1 1-832 0Z"  horiz-adv-x="1024" />

    
    <glyph glyph-name="circle-s" unicode="&#59439;" d="M480 416m-160 0a2.5 2.5 0 1 1 320 0 2.5 2.5 0 1 1-320 0Z"  horiz-adv-x="1024" />

    
    <glyph glyph-name="circle-m" unicode="&#59440;" d="M480 416m-288 0a4.5 4.5 0 1 1 576 0 4.5 4.5 0 1 1-576 0Z"  horiz-adv-x="1024" />

    
    <glyph glyph-name="shichanghuodong" unicode="&#58979;" d="M832 768 192 768C153.6 768 128 742.4 128 704l0-448c0-38.4 25.6-64 64-64l640 0c38.4 0 64 25.6 64 64L896 704C896 742.4 870.4 768 832 768zM864 281.6c0-32-25.6-57.6-57.6-57.6L217.6 224c-32 0-57.6 25.6-57.6 57.6L160 678.4c0 32 25.6 57.6 57.6 57.6l588.8 0c32 0 57.6-25.6 57.6-57.6L864 281.6zM640 64 608 64l0 128-192 0 0-128L384 64c-19.2 0-32-12.8-32-32C352 12.8 364.8 0 384 0l32 0 192 0L640 0c19.2 0 32 12.8 32 32C672 51.2 659.2 64 640 64zM736 627.2c-19.2 0-32-12.8-32-32 0-6.4 0-6.4 0-12.8L595.2 422.4c0 0 0 0-6.4 0-6.4 0-6.4 0-12.8 0L448 544c0 0 0 6.4 0 6.4 0 19.2-12.8 32-32 32C403.2 582.4 384 569.6 384 550.4c0-6.4 0-6.4 0-12.8L288 396.8c0 0 0 0 0 0C268.8 396.8 256 384 256 364.8c0-19.2 12.8-32 32-32S320 352 320 364.8c0 6.4 0 6.4 0 12.8l96 140.8c0 0 6.4 0 6.4 0 6.4 0 6.4 0 6.4 0l134.4-128c0 0 0-6.4 0-6.4 0-19.2 12.8-32 32-32s32 12.8 32 32c0 6.4 0 6.4 0 12.8l108.8 160c0 0 0 0 0 0C755.2 563.2 768 576 768 595.2 768 608 755.2 627.2 736 627.2z"  horiz-adv-x="1024" />

    
    <glyph glyph-name="user" unicode="&#58918;" d="M512 831C265.146 831 65 630.854 65 384c0-246.853 200.147-447 447-447 246.854 0 447 200.147 447 447C959 630.854 758.854 831 512 831zM512 801.2c230.048 0 417.199-187.152 417.199-417.2 0-104.822-38.951-200.671-103.018-274.034-1.603 4.685-3.203 9.385-5.021 13.968-31.08 78.547-94.129 143.471-173.474 178.365-0.218 0.087-0.421 0.159-0.626 0.262 31.647 33.38 51.189 78.367 51.189 128.002 0 102.875-83.377 186.25-186.25 186.25-102.874 0-186.25-83.375-186.25-186.25 0-49.648 19.555-94.652 51.218-128.046-0.394-0.175-0.742-0.291-1.15-0.466-78.851-34.646-141.898-99.57-172.98-178.117-1.818-4.598-3.418-9.283-5.019-13.968C133.753 183.32899999999995 94.8 279.178 94.8 384 94.8 614.048 281.952 801.2 512 801.2zM616.314 314.303c-9.313-8.366-19.541-15.729-30.657-21.697-21.975-11.77-47.03-18.491-73.657-18.491-26.628 0-51.714 6.722-73.686 18.507-11.117 5.968-21.316 13.315-30.629 21.682-31.909 28.664-52.135 70.091-52.135 116.26 0 86.272 70.178 156.45 156.45 156.45s156.449-70.177 156.449-156.45C668.449 384.394 648.225 342.967 616.314 314.303zM221.101 85.34699999999998c1.062 3.885 2.095 7.813 3.302 11.494 26.963 82.721 92.5 151.082 176.909 184.185 30.965-22.96 69.174-36.714 110.688-36.714 41.5 0 79.693 13.735 110.644 36.686 83.799-32.349 149.858-100.999 176.968-184.156 1.193-3.666 2.226-7.594 3.288-11.494C727.687 12.067000000000007 625.06-33.198999999999955 512-33.198999999999955S296.313 12.067000000000007 221.101 85.34699999999998z"  horiz-adv-x="1024" />

    
    <glyph glyph-name="piyue" unicode="&#59387;" d="M869.9328 215.1168c41.1264 49.4208 27.296 62.176 1.632 88.064-19.968 20.1344-36.2688 37.7408-86.784-2.208L869.9328 215.1168 869.9328 215.1168zM869.9328 215.1168M759.5264 278.848c-4.3392-4.1216-8.8448-8.5376-13.6128-13.3184-0.9024-0.9216-133.4208-134.5536-133.4208-134.5536-18.8032-17.792-50.048-117.7408-39.2576-128.6336 10.7904-10.8672 108.9088 18.4128 127.0912 39.1552 0 0 132.8256 133.9264 133.888 134.9888 4.736 4.7872 9.152 9.3312 13.2736 13.6576L759.5264 278.848 759.5264 278.848zM759.5264 278.848M142.2528 493.888c-0.2432 0-0.448-0.1152-0.6784-0.1344l1.3632 0C142.6944 493.7792 142.4896 493.888 142.2528 493.888zM137.2928 481.856l-0.096 0.128C137.2352 481.9392 137.2544 481.888 137.2928 481.856zM460.448 384c0.0384 0 0.0768 0.0064 0.1216 0.0064 0.0384 0 0.0832-0.0064 0.1216-0.0064 62.048 0 112.5504 51.6864 112.5504 115.2L573.2416 576c0 63.5136-50.5024 115.2-112.5504 115.2-0.0384 0-0.0832-0.0064-0.1216-0.0064-0.0448 0-0.0832 0.0064-0.1216 0.0064-62.048 0-112.5504-51.6864-112.5504-115.2l0-76.8C347.8976 435.6864 398.4 384 460.448 384zM467.7888 307.2c-2.4256 0-4.8128-0.1856-7.2192-0.2752C458.1632 307.0144 455.776 307.2 453.3504 307.2c-16.1856 0-32.1152-1.568-47.6352-4.4928-91.8336-17.3184-169.3888-83.8464-200.6592-176.3712-3.7632-11.0656-1.9584-23.0464 4.9152-32.9152 7.3344-10.592 18.7392-16.6272 31.2576-16.6272l163.0144 0 112.6592 0 0.7552 0c9.1904 24.2624 19.5008 45.2352 27.84 53.1328 0 0 56.0256 56.4992 102.784 103.648-36.4928 35.264-82.496 59.6288-132.8512 69.1264C499.8976 305.632 483.9744 307.2 467.7888 307.2zM599.232 704.8832C564.8704 743.5712 515.3792 767.9616 460.5696 768c0 0 0 0 0 0C515.3792 767.9616 564.8704 743.5648 599.232 704.8832zM516.9024 76.8 404.2432 76.8 241.2224 76.8c-12.5184 0-23.9168 6.0288-31.2576 16.6272-6.8736 9.8688-8.6784 21.8496-4.9152 32.9152 31.264 92.5248 108.8256 159.0528 200.6592 176.3712C421.2352 305.632 437.1648 307.2 453.3504 307.2c2.4256 0 4.8128-0.1856 7.2192-0.2752C462.976 307.0144 465.3632 307.2 467.7888 307.2c16.1856 0 32.1152-1.568 47.6352-4.4928 50.3552-9.4912 96.3584-33.8624 132.8512-69.1264 22.2912 22.4832 42.4128 42.7776 53.4016 53.856-32.2304 31.5776-70.2976 56.5312-112.1216 73.1008 35.9808 35.0592 58.7584 84.128 58.7584 138.6624L648.3136 576c0 105.6-84.448 192-187.6224 192-0.0384 0-0.0832 0-0.1216 0 54.8096-0.032 104.2944-24.4288 138.6624-63.1168C564.8704 743.5648 515.3792 767.9616 460.5696 768c0 0 0 0 0 0-0.0384 0-0.0832 0-0.1216 0-103.1744 0-187.6224-86.4-187.6224-192l0-76.8c0-54.5344 22.7712-103.6032 58.752-138.6624-90.8096-35.9808-164.3136-111.0912-197.4528-209.088-11.7888-34.8288-6.4128-72.2304 14.6688-102.5664C170.112 18.272 204.6336 0 241.2224 0l85.8304 0 168.8704 0c3.4752 21.5104 11.9616 50.9952 21.7344 76.8L516.9024 76.8zM625.3696 667.2896c-2.8992 5.44-6.0416 10.72-9.4208 15.8336C619.328 678.0096 622.4704 672.7296 625.3696 667.2896zM347.8976 576c0 63.5136 50.5024 115.2 112.5504 115.2 0.0384 0 0.0768-0.0064 0.1216-0.0064 0.0384 0 0.0832 0.0064 0.1216 0.0064 62.048 0 112.5504-51.6864 112.5504-115.2l0-76.8c0-63.5072-50.5024-115.2-112.5504-115.2-0.0384 0-0.0832 0.0064-0.1216 0.0064-0.0448 0-0.0832-0.0064-0.1216-0.0064-62.048 0-112.5504 51.6864-112.5504 115.2L347.8976 576z"  horiz-adv-x="1024" />

    
    <glyph glyph-name="reset" unicode="&#59239;" d="M873.489 222.62300000000005c-15.633 9.283-35.747 4.163-44.975-11.391-66.741-112.014-189.13-181.584-319.363-181.584-173.765 0-320.054 119.881-360.445 281.296l47.644-47.615c12.801-12.803 33.558-12.803 46.363 0 12.751 12.803 12.751 33.558-0.054 46.363l-114.652 114.626c-9.338 9.39-23.364 12.164-35.693 7.095-12.27-5.069-20.221-17.021-20.221-30.275 0-240.989 196.068-437.057 437.057-437.057 153.226 0 297.169 81.841 375.702 213.593 9.231 15.552 4.163 35.665-11.363 44.948v0zM509.153 838.195c-168.484 0-319.095-94.115-392.988-245.603-7.95-16.271-1.173-35.906 15.099-43.829 16.113-7.95 35.906-1.255 43.803 15.073 62.849 128.789 190.839 208.79 334.087 208.79 173.767 0 320.003-119.881 360.445-281.271l-58.208 58.18c-12.801 12.803-33.507 12.803-46.309 0s-12.801-33.556 0-46.363l125.215-125.215c6.242-6.268 14.619-9.604 23.155-9.604 4.212 0 8.483 0.827 12.538 2.507 12.27 5.069 20.222 17.021 20.222 30.275-0.001 240.991-196.068 437.057-437.058 437.057v0z"  horiz-adv-x="1024" />

    
    <glyph glyph-name="search2" unicode="&#59120;" d="M639.627772 3.0681280000000015L226.749304 3.0681280000000015c-54.56985 0-98.806353 44.237527-98.806353 98.806353L127.942951 669.85854c0 54.56985 44.237527 98.806353 98.806353 98.806353l569.914014 0c54.56985 0 98.806353-44.237527 98.806353-98.806353l0-413.525198 63.960731 0L959.430402 686.552757c0 80.317257-65.109903 145.426137-145.426137 145.426137L209.408357 831.978894c-80.316234 0-145.426137-65.109903-145.426137-145.426137L63.98222 81.95684900000003c0-80.317257 65.109903-145.426137 145.426137-145.426137l430.219415 0L639.627772 3.0681280000000015zM959.430402-25.185355999999956L710.73425 223.51079600000003c35.524075 43.930535 56.81396 99.846032 56.81396 160.742984 0 141.29812-114.544803 255.842922-255.842922 255.842922S255.863389 525.552923 255.863389 384.254803s114.544803-255.842922 255.842922-255.842922c60.896952 0 116.813472 21.289885 160.744008 56.81396l248.696152-248.696152L959.430402-25.185355999999956zM511.706311 192.372611c-105.97359 0-191.882192 85.908602-191.882192 191.882192s85.908602 191.882192 191.882192 191.882192 191.882192-85.908602 191.882192-191.882192S617.679901 192.372611 511.706311 192.372611z"  horiz-adv-x="1024" />

    
    <glyph glyph-name="daiban" unicode="&#58911;" d="M453.886953 419.447327l332.431252 0 0-51.743478-332.431252 0 0 51.743478ZM453.886953 232.28257599999995l332.431252 0 0-51.7752-332.431252 0 0 51.7752ZM400.916531 430.930869L364.275006 467.569324 311.380308 414.677697 277.182438 448.875566 240.54603 412.230971 311.380308 341.39874ZM400.916531 243.784538L364.275006 280.42197 311.384401 227.529319 277.182438 261.728212 240.54603 225.08873400000004 311.380308 154.243199ZM891.43938 718.841138L786.328437 718.841138 786.328437 849.846844l-51.744501 0 0-131.005706L543.084461 718.841138 543.084461 849.846844l-51.738361 0 0-131.005706L299.848671 718.841138 299.848671 849.846844l-51.744501 0 0-131.005706-86.36602 0c-45.221948 0-82.013899-36.790928-82.013899-82.012875L79.724251 38.04984999999999c0-45.219901 36.791951-82.009805 82.013899-82.009805l729.743186 0c45.221948 0 82.013899 36.788881 82.013899 82.009805L973.495234 636.829286C973.495234 682.051233 936.703283 718.841138 891.43938 718.841138zM131.44317 636.744351c0 16.681938 13.57211 30.254048 30.254048 30.254048l86.345554 0 0-93.529163 51.749618 0 0 93.529163 191.493336 0 0-93.529163 51.747571 0 0 93.529163 191.494359 0 0-93.529163 51.744501 0 0 93.529163 105.109919 0c16.682961 0 30.255071-13.57211 30.255071-30.254048L921.637146 37.957753000000025l0.014326-1.687432c-0.876973-15.901155-14.09195-28.566616-30.207999-28.566616L161.697217 7.703705000000014c-16.681938 0-30.254048 13.57211-30.254048 30.254048L131.44317 636.744351z"  horiz-adv-x="1024" />

    
    <glyph glyph-name="more" unicode="&#58927;" d="M562.834158 332.766742c114.0916 0 224.842013 2.174587 335.449158-0.859601 61.047039-1.673152 111.558847-57.726318 113.6004-121.214011 2.21552-68.967651 2.409954-138.129736-0.010233-207.087153-2.420187-69.008584-58.232869-119.970659-127.558687-120.420926-63.927727-0.419567-127.865687-0.521901-191.793414 0.025583-73.204257 0.629351-129.528606 57.276051-129.641173 129.81514C562.716474 118.60834499999999 562.834158 224.19091600000002 562.834158 332.766742zM611.237895 136.49112100000002c0-39.183491-0.286534-78.372098 0.071633-117.550472 0.480967-52.13891 32.465298-84.834458 84.148823-85.269375 62.177824-0.521901 124.365882-0.491201 186.548823 0 48.971688 0.388867 79.502883 30.536311 80.132234 79.932684 0.798201 62.172708 0.834018 124.370999 0.04605 186.543707-0.649818 51.325359-31.329396 83.396672-82.629171 84.220457-80.899735 1.299635-161.840404 0.102333-242.760606 0.557717-18.471194 0.102333-25.992705-7.337311-25.716404-25.772688C611.693279 218.27092400000004 611.268595 177.378464 611.237895 136.49112100000002zM475.717664 333.165842c0-9.13838 0-15.72354 0-22.308699 0-100.511947 0.19955-201.018778-0.066517-301.530725-0.1842-69.668635-54.69213-125.292-124.176565-126.059501-65.580413-0.726568-131.181292-0.757268-196.756588 0.010233-69.950052 0.818668-126.786069 56.083865-128.402938 126.095318-1.499186 64.695228-1.575936 129.482556-0.148384 194.177784 1.637336 73.935942 59.552971 129.308589 133.611712 129.53884C263.67757 333.401209 367.581872 333.165842 475.717664 333.165842zM427.293459 133.48763299999996c0 41.700894-0.220017 83.401789 0.112567 125.102683 0.127917 15.805406-3.893789 26.279238-22.487783 26.197372-82.542188-0.373517-165.135542 1.299635-247.616329-1.059152-50.568091-1.448019-80.454585-35.688802-80.976485-86.44621-0.614001-59.568321-0.562834-119.146875-0.056283-178.715195 0.450267-53.510178 32.286214-84.624674 86.482027-84.941908 60.422805-0.347934 120.850727-0.368401 181.268416 0.010233 51.576076 0.317234 82.409154 30.848429 83.176655 82.414271C427.774427 55.18716800000004 427.313926 94.33995900000002 427.293459 133.48763299999996zM562.834158 421.438705c0 31.099146 0 61.53824 0 91.977335 0 74.104792-0.07675 148.204467 0.020467 222.309259 0.097217 73.925708 55.643832 132.363244 129.170439 133.770329 64.710578 1.243352 129.47744 1.166602 194.193134 0.010233 67.831749-1.207535 123.383481-54.61538 125.685984-123.255564 2.312737-68.906251 2.435537-138.022286-0.04605-206.918303-2.435537-67.509399-55.239614-118.287273-122.72343-119.192925-104.743437-1.401969-209.52269-0.486084-314.286594-0.470734C571.645071 419.668336 568.442033 420.58422 562.834158 421.438705zM757.436626 466.987338c40.027742 0 80.070834-0.823785 120.072993 0.209784 49.867106 1.289402 83.427372 31.380563 84.281857 77.195263 1.238235 66.399081 1.222885 132.854445-0.133034 199.248409-0.885185 43.21543-34.378934 75.03091-77.497147 75.496527-63.011842 0.680518-126.039035 0.670284-189.050877 0.025583-47.917654-0.491201-82.731505-33.606316-83.468306-81.667236-1.253585-81.733753-0.13815-163.503323-0.527017-245.257543-0.086983-18.650277 7.966662-25.767571 26.253655-25.475921C677.381142 467.401789 717.408884 466.956638 757.436626 466.987338zM475.72278 420.640504c-9.486314-0.475851-16.127757-1.089852-22.7692-1.094968-95.47714-0.0614-190.959396-0.347934-286.436536 0.04605C79.405666 419.954869 26.202488 472.958497 25.716404 559.39959 25.394054 616.5119070000001 25.235437 673.634458 25.762454 730.7467750000001 26.524839 813.775046 83.325039 869.644011 166.38401 869.756578c57.966802 0.07675 115.93872 0.10745 173.905521-0.010233 80.127117-0.163734 135.341148-54.901914 135.407665-134.271763C475.78418 631.5446959999999 475.72278 527.609694 475.72278 420.640504zM427.283226 616.675641c0 40.068675 0.818668 80.152701-0.204667 120.195793-1.309869 51.120692-33.637016 82.18402-84.47629 82.398921-58.821286 0.250717-117.642572 0.179084-176.463858 0.025583-56.329466-0.148384-89.372948-32.327147-89.874382-88.370079-0.516784-57.961685-0.414451-115.93872-0.051167-173.905521 0.353051-55.720582 32.572748-89.106881 88.774297-89.807865 78.418148-0.977285 156.856763 0.10745 235.280028-0.506551 19.816879-0.1535 27.563524 7.628961 27.236057 27.21559C426.812492 534.8293209999999 427.293459 575.7575979999999 427.283226 616.675641z"  horiz-adv-x="1024" />

    
    <glyph glyph-name="edit2" unicode="&#58938;" d="M876.8 550.4c-12.8 0-25.6-12.8-25.6-25.6 0 0 0 0 0 0l0-518.4c0-6.4-6.4-12.8-12.8-12.8l-704 0c-6.4 0-12.8 6.4-12.8 12.8l0 704c0 6.4 6.4 12.8 12.8 12.8l518.4 0c12.8 0 25.6 12.8 25.6 25.6 0 12.8-12.8 25.6-25.6 25.6L134.4 774.4C96 774.4 64 748.8 64 710.4l0-704C64-32 96-64 134.4-64l704 0c38.4 0 70.4 32 70.4 70.4L908.8 524.8l0 0C902.4 537.6 889.6 550.4 876.8 550.4M953.6 825.6c-12.8 12.8-25.6 12.8-38.4 0l-620.8-620.8c-12.8-12.8-12.8-25.6 0-38.4 6.4-6.4 12.8-6.4 19.2-6.4 6.4 0 12.8 0 19.2 6.4l620.8 620.8C960 793.6 960 812.8 953.6 825.6z"  horiz-adv-x="1024" />

    
    <glyph glyph-name="alarm" unicode="&#58951;" d="M490.2 450.8c0 18 12.6 32.9 28 32.9 15.5 0 28-13.1 28-31.1l0-178.8c0-18-12.6-30.2-28-30.2-15.5 0-28 12-28 29.9L490.2 450.8zM518.7 148.60000000000002c-17.1 0-30.9 14.1-30.9 31.6 0 17.4 13.8 31.6 30.9 31.6 17.1 0 30.9-14.1 30.9-31.6C549.6 162.70000000000005 535.8 148.60000000000002 518.7 148.60000000000002L518.7 148.60000000000002zM568.832 699.392c20.992-35.328 333.312-560.64 349.184-587.776 14.336-24.064 14.336-47.104 6.656-61.952-8.704-16.384-29.696-21.504-52.736-21.504-18.944 0-678.912 0-709.632 0-28.16 0-49.152 7.68-55.296 19.968-7.68 16.384-6.144 37.888 11.264 67.072C137.216 146.94399999999996 447.488 679.936 457.728 696.3199999999999c15.36 26.112 37.376 43.52 57.856 43.52C536.064 739.84 556.544 719.36 568.832 699.392zM502.272 643.5840000000001c-11.776-19.968-302.08-513.024-316.928-537.088-6.656-11.264-8.192-17.92 6.656-17.92 44.544 0 602.624 0 645.632 0 14.336 0 15.872 8.192 9.728 18.432-25.088 41.472-308.736 518.144-321.024 537.6C514.56 664.064 514.048 663.552 502.272 643.5840000000001z"  horiz-adv-x="1026" />

    
    <glyph glyph-name="tequan" unicode="&#59292;" d="M832.563 95.957h-640.976c-19.027 0-35.174 13.126-38.497 31.209l-92.837 480.897c-2.872 15.605 4.826 31.352 19.018 39.226 14.341 7.867 32.155 6.27 44.68-3.936l190.174-160.41 165.192 266.542c14.341 21.574 51.174 21.574 65.517 0l165.089-266.542 190.115 160.555c12.535 10.349 30.502 11.806 44.69 3.938 14.339-7.876 21.882-23.623 19.016-39.226l-92.682-481.192c-3.322-17.935-19.48-31.060-38.493-31.060v0zM192.222 144.001h639.71l76.027 433.853-163.285-139.722c-9.567-8.101-21.99-11.644-34.409-9.963-12.411 1.863-23.326 8.948-30.205 19.407l-167.987 261.392-167.974-261.392c-6.887-10.629-17.795-17.715-30.213-19.407-12.58-1.849-25.001 1.863-34.405 9.963l-163.283 139.722 76.024-433.853zM839.651 2.334h-655.151c-22.065 0-39.964 12.733-39.964 28.436 0 15.698 17.899 28.435 39.964 28.435h655.151c22.065 0 39.964-12.735 39.964-28.435 0-15.701-17.899-28.436-39.964-28.436v0zM839.651 2.334z"  horiz-adv-x="1024" />

    
    <glyph glyph-name="mark" unicode="&#58931;" d="M512-128C229.241263-128 0 101.241263 0 384 0 666.758737 229.241263 896 512 896 794.758737 896 1024 666.758737 1024 384 1024 101.241263 794.758737-128 512-128ZM512 842.105263C258.991158 842.105263 53.894737 637.008842 53.894737 384 53.894737 130.99115800000004 258.991158-74.10526300000004 512-74.10526300000004 765.008842-74.10526300000004 970.105263 130.99115800000004 970.105263 384 970.105263 637.008842 765.008842 842.105263 512 842.105263ZM423.262316 163.247158C412.752842 152.710737 395.668211 152.710737 385.158737 163.247158L210.405053 338.00084200000003C199.868632 348.510316 199.868632 365.59494700000005 210.405053 376.104421 220.914526 386.640842 237.972211 386.640842 248.508632 376.104421L404.210526 220.40252599999997 775.491368 591.683368C786.027789 602.219789 803.085474 602.219789 813.594947 591.683368 824.131368 581.173895 824.131368 564.0892630000001 813.594947 553.579789L423.262316 163.247158Z"  horiz-adv-x="1024" />

    
    <glyph glyph-name="biaoji1" unicode="&#58937;" d="M947.332876 574.024891 702.019775 819.340039c-15.163351 15.155165-39.759539 15.163351-54.933123 0-3.295046-3.295046-74.008574-75.53637-46.833655-170.547281L489.192551 537.726174c-60.721967 18.435884-217.759559 50.338479-333.376787-65.274656-15.168468-15.173584-15.168468-39.764656 0-54.93824l167.378102-167.379125L76.667124 3.60434c-15.168468-15.174608-15.168468-39.764656 0-54.93824 7.586792-7.582699 17.525142-11.375072 27.468608-11.375072s19.882839 3.793396 27.468608 11.375072L378.132106 195.195913l167.378102-167.380148c7.586792-7.581676 17.529235-11.375072 27.468608-11.375072 9.943466 0 19.881816 3.794419 27.468608 11.375072 115.612111 115.619274 83.715657 272.65175 65.273632 333.379856l111.065562 111.061468c95.025237-27.190269 167.254282 43.543725 170.546258 46.833655C962.501344 534.260236 962.501344 558.8554 947.332876 574.024891zM783.415596 552.520111c-14.817474 6.927783-32.375362 3.854794-43.945885-7.709589L593.633229 398.97711c-11.04352-11.04352-14.358009-27.729551-8.472975-42.197054 0.174985-0.436952 17.676591-44.046169 20.654412-100.501972 2.959402-56.104809-8.947789-104.181781-35.444257-143.453203L405.622204 277.576155c-0.00921 0.00921-0.013303 0.017396-0.021489 0.026606-0.00921 0.008186-0.017396 0.01228-0.026606 0.021489L240.825904 442.374502c104.037495 70.26839 237.759055 17.302061 243.856937 14.826684 14.510482-5.988388 31.191396-2.659573 42.291199 8.436136l145.831366 145.837506c11.561313 11.565407 14.642488 29.133527 7.710612 43.946908-13.58132 28.991288-8.615215 55.815213-0.052189 75.597769l178.540326-178.542372C839.198064 543.904896 812.379255 538.950048 783.415596 552.520111zM553.209564 342.294133c1.37123-3.053546 13.353123-30.720675 12.490475-61.154825-0.521886-18.430768-15.634072-33.021068-33.955346-33.021068-0.327458 0-0.654916 0.005117-0.986467 0.014326-18.762319 0.531096-33.542954 16.173354-33.006741 34.942837 0.355087 12.565177-4.674463 27.051099-6.643304 31.575136-7.462972 17.141402 0.284479 37.184901 17.389042 44.74304C525.57518 366.956835 545.552164 359.364927 553.209564 342.294133z"  horiz-adv-x="1024" />

    
    <glyph glyph-name="pifa" unicode="&#58933;" d="M824.13295-47.78405 199.86705-47.78405c-22.984481 0-41.617863 18.633383-41.617863 41.617863L158.249187 701.335439c0 22.985504 18.633383 41.617863 41.617863 41.617863l205.606775 0c16.660448 42.605354 58.019415 72.830749 106.527199 72.830749s89.86675-30.226418 106.527199-72.830749l205.605751 0c22.984481 0 41.617863-18.632359 41.617863-41.617863l0-707.501626C865.750813-29.150668 847.11743-47.78405 824.13295-47.78405zM512 742.953302c-22.984481 0-41.617863-18.632359-41.617863-41.617863s18.633383-41.617863 41.617863-41.617863c22.984481 0 41.617863 18.632359 41.617863 41.617863S534.984481 742.953302 512 742.953302zM772.111133 45.85563 772.111133 649.313621l-72.830749 0 0-93.63968L324.719616 555.673941l0 93.63968-72.831772 0 0-603.456968M699.279361 66.664561l-62.426795 0c-22.984481 0-41.617863 18.633383-41.617863 41.617863L595.234703 524.460032l52.021817 0L647.25652 378.797511l62.426795 0 0-52.021817-62.426795 0 0-208.088292 41.617863 0 0 83.235726 52.021817-20.808932 0-72.830749C740.897224 85.297944 722.263841 66.664561 699.279361 66.664561zM459.978183 118.687402l10.403954 2.601244L470.382137 524.460032l52.021817 0L522.403954 378.797511l62.426795 0 0-52.021817-62.426795 0 0-192.481849 62.426795 15.606443 0-52.021817-124.853589-31.212886L459.977159 118.687402zM449.573205 305.966763l10.403954-52.021817-52.021817-14.863523 0-141.202952c0-17.238616-13.974269-31.212886-31.212886-31.212886L324.719616 66.665585l-20.808932 52.021817 52.021817 0L355.932502 224.2179l-41.617863-11.890818-10.403954 52.021817 52.021817 14.863523L355.932502 389.202489l-52.021817 0 0 52.021817 52.021817 0 0 83.235726 52.021817 0 0-83.235726 52.021817 0 0-52.021817L407.955342 389.202489l0-95.126544L449.573205 305.966763z"  horiz-adv-x="1024" />

    
    <glyph glyph-name="apply" unicode="&#58888;" d="M259.52 317.82399999999996l-137.6-278.592c-11.52-31.36 13.568-59.52 44.928-44.864l278.4 137.6a61.76 61.76 0 0 1 32.96 16.32L972.8 643.2a63.68 63.68 0 0 1 0 89.984L860.352 845.632a63.488 63.488 0 0 1-89.856 0L275.84 350.784a62.208 62.208 0 0 1-16.32-32.96z m533.376 460.352a31.744 31.744 0 0 0 44.928 0l67.456-67.456a32 32 0 0 0 0-44.992l-67.456-67.456-110.848 114.048 65.92 65.856z m-113.28-113.28l113.28-111.68-359.744-359.936c-42.112 42.24-100.416 100.608-112.384 112.448l358.848 359.168zM377.152 159.36l-171.904-104.128c-15.68-7.232-29.696 7.808-22.464 22.528l104.064 172.032 90.304-90.432zM960 512v-512c0-35.136-34.752-64.384-69.888-64.384H127.168a63.616 63.616 0 0 0-63.552 63.616V762.688C63.616 797.888 92.864 832 128 832h512V896H128C57.792 896 0 833.024 0 762.688v-763.456C0-70.976 56.96-128 127.168-128h762.944C960.384-128 1024-70.27200000000005 1024 0V512h-64z"  horiz-adv-x="1024" />

    
    <glyph glyph-name="todo" unicode="&#58954;" d="M372.674303 278.158417L208.583061 278.158417l0-55.112202 158.683069 0C367.966071 241.81774399999995 369.801882 260.210649 372.674303 278.158417L372.674303 278.158417zM208.583061 492.135836l353.807095 0c29.618575 13.797237 61.45363 22.044062 94.675266 23.715121l0 31.399127L208.583061 547.250084 208.583061 492.135836 208.583061 492.135836zM158.507572 126.50955499999998c-20.847817 0-29.540803 8.698103-29.540803 29.526477l0 593.077573c0 20.828374 8.694009 29.52443 29.540803 29.52443l548.628222 0c20.826328 0 29.54592-8.696056 29.54592-29.52443l0-237.22489c23.485901-4.300956 33.708729-11.326976 54.92596-20.72502L791.607674 788.783093c0 24.76708-20.083407 44.847417-44.847417 44.847417L118.888226 833.630511c-24.769127 0-44.852534-20.081361-44.852534-44.847417l0-672.728658c0-24.758893 20.083407-44.847417 44.852534-44.847417l283.845697 0c-11.346419 21.157879-20.263509 31.520901-26.356274 55.302537L178.973696 126.50955499999998 158.507572 126.50955499999998zM208.583061 681.794383l448.481338 0 0-55.113225-448.481338 0 0 55.113225ZM679.400103 475.764983c-148.146085 0-268.25358-120.091122-268.25358-268.258697 0-148.144038 120.112612-268.257673 268.25358-268.257673 148.164504 0 268.25665 120.114658 268.25665 268.257673C947.656753 355.673861 827.564607 475.764983 679.400103 475.764983zM679.87901-9.252478999999994C560.885895-9.252478999999994 464.4311 87.19822399999998 464.4311 206.18929200000002c0 118.999255 96.455819 215.45712 215.44791 215.45712 119.001301 0 215.452004-96.457866 215.452004-215.45712C895.32999 87.19822399999998 798.875195-9.252478999999994 679.87901-9.252478999999994zM208.583061 412.706809l0-55.113225 197.292412 0c8.973372 19.528775 19.332301 37.97387 30.9325 55.113225L208.583061 412.706809zM681.543929 181.487703L681.543929 306.070116 627.394658 306.070116 627.394658 126.31717300000003 807.143509 126.31717300000003 807.143509 181.487703Z"  horiz-adv-x="1024" />

    
    <glyph glyph-name="notice" unicode="&#58932;" d="M877.57218 85.372343l-6.336262-8.772963-139.368489 99.988375-139.36849 99.988376 8.69773 14.106122 8.697731 14.106123 117.220833-83.282547 117.220832-83.282547 19.786188-22.038988 19.786188-22.038988-6.336261-8.772963z m-646.474188 158.155755l2.649861-15.727804 2.649861-15.727804 189.414923 31.84013 189.414922 31.840131-2.649861 15.727804-2.649861 15.727804-189.414923-31.84013-189.414922-31.840131z m595.717224 81.761175l17.332768-13.433208 162.795102 27.367968 162.795102 27.367967-2.963331 15.844833-2.959151 15.844832-177.168718-29.779592-177.168719-29.779591 17.336947-13.433209z m262.106384 525.182433l-15.727804-2.645682-15.727804-2.645681 40.45009-240.64 40.454269-240.64 15.736163 2.641502 15.731984 2.641502-40.458449 240.64-40.458449 240.648359zM195.429355 452.578743l40.45009-240.64 15.740343 2.645681 15.740343 2.645682-40.45427 240.64-40.454269 240.631641-15.736163-2.641502-15.736164-2.641502 40.45009-240.64z m-40.633992 241.179167l2.14831-15.886628 2.144131-15.886629 467.575118 78.597225 467.570939 78.597224-2.649861 15.731984-2.649861 15.731983-467.069388-78.442579-467.069388-78.44258z m707.755364-476.348081l-20.964833 124.727379-15.644212-2.633143-15.644213-2.628963 16.835396-100.126302 16.835396-100.122122 19.773649-21.972115 19.773649-21.967934-20.964832 124.7232z"  horiz-adv-x="1270" />

    
    <glyph glyph-name="flowcontrol2" unicode="&#58897;" d="M948.418 568.375c-23.858 56.406-58.005 107.056-101.496 150.547-43.491 43.49-94.142 77.638-150.547 101.496C637.962 845.124 575.93 857.652 512 857.652c-63.93 0-125.963-12.527-184.375-37.233-56.406-23.858-107.056-58.007-150.547-101.497-43.49-43.491-77.638-94.141-101.496-150.547C50.876 509.962 38.348 447.93 38.348 384c0-63.93 12.527-125.963 37.233-184.375 23.858-56.405 58.007-107.056 101.497-150.547 43.491-43.491 94.141-77.638 150.547-101.496C386.037-77.125 448.07-89.65200000000004 512-89.65200000000004c63.93 0 125.963 12.527 184.375 37.234 56.405 23.858 107.056 58.005 150.547 101.496s77.638 94.142 101.496 150.547C973.125 258.038 985.652 320.07000000000005 985.652 384c0 63.93-12.528 125.963-37.234 184.375z m-51.807-346.837c-21.022-49.702-51.122-94.343-89.465-132.684s-82.984-68.443-132.684-89.465c-51.441-21.757-106.102-32.79-162.462-32.79-56.362 0-111.022 11.033-162.462 32.79-49.701 21.022-94.342 51.122-132.684 89.465-38.343 38.342-68.442 82.984-89.465 132.684C105.632 272.97900000000004 94.599 327.64 94.599 384c0 56.362 11.033 111.022 32.79 162.462 21.022 49.701 51.122 94.342 89.465 132.684 38.342 38.343 82.984 68.442 132.684 89.465 51.441 21.757 106.101 32.79 162.462 32.79 56.361 0 111.022-11.033 162.462-32.79 49.702-21.022 94.343-51.122 132.684-89.465 38.342-38.342 68.443-82.984 89.465-132.684 21.757-51.441 32.79-106.101 32.79-162.462 0-56.361-11.033-111.022-32.79-162.462zM802.879 408.088H702.184l-36.901 117.353c-1.809 6.748-8.741 10.752-15.488 8.944l-21.601-0.264c-6.532 1.75-11.665-3.705-13.417-10.239l-53.732-257.935-72.682 359.112c-1.751 6.533-8.464 10.408-14.999 8.658 0 0-18.277-0.353-26.971-0.353-8.695 0-11.385-8.616-11.385-8.616L380.73 340.933l-19.285 60.172c-1.848 6.773-8.27 7.635-15.833 7.394l-124.492-0.408c-6.983 0-12.647-5.664-12.647-12.647v-25.293c0-6.984 5.663-12.646 12.647-12.646h100.141l37.079-115.682c1.849-6.771 8.936-10.788 15.833-8.974l19.672 0.267c6.678-1.756 14.332 3.713 16.12 10.269l55.597 261.457L538.9 142.94399999999996c1.75-6.533 8.463-10.41 14.994-8.66 0 0 13.367 0.224 21.271 0.224s9.108 14.633 9.108 14.633l59.105 277.477 18.869-60.001c1.808-6.745 8.741-10.75 15.49-8.941l125.143-0.174c6.985 0 12.647 5.66 12.645 12.646v25.293c0.002 6.982-5.658 12.647-12.646 12.647z"  horiz-adv-x="1024" />

    
    <glyph glyph-name="expired" unicode="&#59231;" d="M1239.715372 454.485809l-15.464225 61.8569-30.92845-7.732113c5.154742-18.041596 10.309483-38.660563 15.464225-61.8569l30.92845 7.732113zM1102.444601 473.764543l201.653494-54.047467-7.345507-27.371678-201.653494 54.021693zM1273.221193 310.153042c-15.464225 33.505821-28.351079 59.279529-41.237934 82.475867l-25.773708-12.886854c15.464225-30.92845 28.351079-59.279529 38.660562-85.053238l28.35108 15.464225zM1355.697059 165.82027500000004c38.660563 38.660563 72.166383 95.362721 100.517463 172.683846l28.351079-7.732112 7.732113 28.351079-128.868542 33.505821c15.464225 20.618967 28.351079 43.815304 41.237933 69.589012l-30.92845 12.886854c-25.773708-56.702158-61.8569-105.672204-105.672204-141.755396 5.154742-10.309483 10.309483-20.618967 12.886854-30.92845 10.309483 7.732113 20.618967 18.041596 28.351079 25.773709-7.732113-54.124788-5.154742-105.672204 5.154742-154.64225-33.505821-25.773708-72.166383-46.392675-118.559059-61.8569 7.732113-12.886854 12.886854-23.196338 15.464225-30.92845 43.815304 15.464225 82.475867 33.505821 113.404317 59.279529 12.886854-36.083192 36.083192-72.166383 64.434271-103.094834 7.732113 7.732113 18.041596 18.041596 30.92845 25.773709-28.351079 30.92845-48.970046 64.434271-64.434271 103.094833z m-7.732112 201.034925l77.321125-20.618966c-20.618967-59.279529-46.392675-108.249575-79.898496-144.332767-10.309483 48.970046-10.309483 103.094833 2.577371 164.951733zM1170.126359 392.628909l-23.196337 23.196337c-33.505821-30.92845-64.434271-54.124788-90.20798-72.166383 7.732113-10.309483 12.886854-18.041596 18.041596-25.773709 36.083192 23.196338 67.011642 48.970046 95.362721 74.743755zM1177.858472 227.67717500000003c20.618967 18.041596 38.660563 38.660563 56.702158 61.8569l-25.773708 23.196338c-15.464225-20.618967-30.92845-38.660563-48.970046-56.702159-12.886854 23.196338-25.773708 43.815304-38.660563 67.011642l-25.773708-12.886854c12.886854-23.196338 25.773708-48.970046 41.237933-74.743754-36.083192-30.92845-77.321125-51.547417-123.7138-64.434271 5.154742-12.886854 10.309483-23.196338 12.886854-30.92845 23.196338 10.309483 51.547417 28.351079 77.321125 51.547417-2.577371-7.732113-7.732113-15.464225-12.886854-25.773709 20.618967 10.309483 41.237933 25.773708 61.8569 41.237934 10.309483-20.618967 23.196338-43.815304 33.505821-69.589013l33.505821 15.464225c-12.886854 23.196338-28.351079 48.970046-41.237933 74.743754zM716.509092 529.229563l54.124788-15.464225c12.886854 5.154742 25.773708 12.886854 36.083191 23.196337l-67.011641 18.041596c12.886854 15.464225 23.196338 30.92845 36.083191 48.970046l-28.351079 18.041596c-28.351079-48.970046-64.434271-87.630608-108.249575-121.136429 7.732113-10.309483 15.464225-18.041596 20.618967-25.773709 18.041596 18.041596 38.660563 36.083192 56.702158 54.124788zM824.758667 379.74205500000005l172.683846-46.392676 7.732113 30.928451-175.261217 46.392675c7.732113 20.618967 15.464225 48.970046 25.773708 82.475866l152.06488-41.237933 7.732112 30.92845-149.487508 41.237933c7.732113 23.196338 15.464225 51.547417 23.196337 79.898496l-36.083192 7.732113c-7.732113-28.351079-15.464225-56.702158-23.196337-79.898496l-7.732113 2.577371c-5.154742-10.309483-10.309483-18.041596-18.041595-28.35108l18.041595-5.154741c-10.309483-36.083192-18.041596-64.434271-25.773708-82.475867L618.569 467.372663l-7.732112-30.92845 172.683846-46.392675c-36.083192-59.279529-108.249575-92.78535-219.076521-100.517463 7.732113-15.464225 12.886854-28.351079 15.464225-38.660562 108.249575 15.464225 180.415958 51.547417 219.076521 108.249575 7.732113-74.743754 51.547417-139.178025 134.023283-195.880184 10.309483 7.732113 20.618967 18.041596 33.505821 25.773709-87.630608 51.547417-134.023283 115.981688-141.755396 190.725442zM427.843559 176.12975900000004L61.8569 274.06985c-18.041596 5.154742-30.92845 25.773708-25.773708 43.815304l20.618966 74.743755c-12.886854-2.577371-25.773708-2.577371-38.660562-2.577371L2.577371 328.19463800000005c-10.309483-38.660563 12.886854-77.321125 48.970046-87.630609l304.129758-82.475866c20.618967 2.577371 51.547417 7.732113 72.166384 18.041596zM523.20628 150.35604999999998c-15.464225-5.154742-30.92845-10.309483-43.815305-7.732112-10.309483 2.577371-18.041596 12.886854-20.618966 25.773708l-25.773709 7.732113-23.196337-30.92845 365.986658-97.940092c12.886854 7.732113 28.351079 18.041596 43.815305 25.773708l-296.397646 77.321125zM61.8569 410.670505L175.261217 833.359321c5.154742 18.041596 25.773708 30.92845 43.815304 25.773709l1164.971617-311.861871c-7.732113 12.886854-7.732113 30.92845-7.732112 38.660562L273.201309 879.751997c7.732113-10.309483 18.041596-20.618967 28.351079-28.35108-20.618967 7.732113-59.279529 20.618967-79.898496 43.815305-36.083192 5.154742-72.166383-15.464225-79.898496-51.547417L28.351079 420.979988c10.309483-5.154742 20.618967-7.732113 33.505821-10.309483zM1461.369263-86.762067c-7.732113-5.154742-18.041596-7.732113-28.351079-5.154741l-443.307783 118.559058c-41.237933 7.732113-105.672204 15.464225-172.683846 10.309483l608.259517-162.374362c5.154742-2.577371 12.886854-2.577371 18.041596-2.577371 2.577371 10.309483 10.309483 25.773708 18.041595 41.237933zM1548.999872 189.016613s10.309483-7.732113 25.773708-15.464225l69.589013 265.469196c10.309483 38.660563-12.886854 77.321125-48.970046 87.630608l-208.767038 56.702158c23.196338-12.886854 69.589013-36.083192 121.13643-41.237933-12.886854-5.154742-36.083192-10.309483-56.702159-12.886854l134.023284-36.083192c18.041596-5.154742 30.92845-25.773708 25.773708-43.815304l-131.445913-492.277829c5.154742-20.618967 7.732113-46.392675 2.577371-69.589013 10.309483 10.309483 20.618967 23.196338 25.773709 38.660563l56.702158 211.344408c-18.041596 12.886854-15.464225 51.547417-15.464225 51.547417zM505.164684 431.289471c-10.309483-28.351079-20.618967-48.970046-28.35108-64.434271-10.309483-15.464225-25.773708-20.618967-48.970045-12.886854l-198.457555 51.547417c-23.196338 5.154742-30.92845 20.618967-25.773708 43.815304-12.886854 10.309483-23.196338 20.618967-23.196338 20.618967s12.886854 2.577371 30.92845 7.732112l25.773709 92.78535 239.695487-64.434271-7.732112-25.773708 33.505821-10.309483 51.547417 190.725442L229.386004 750.883455l-7.732112-30.92845 288.665533-77.321125-28.351079-105.672205-239.695488 64.434271 15.464226 56.702159-33.505821 10.309483L167.529104 457.06318c-10.309483-43.815304 2.577371-69.589013 43.815304-79.898496l213.92178-56.702159c36.083192-10.309483 64.434271 0 79.898496 28.351079 7.732113 15.464225 18.041596 36.083192 30.92845 64.434271-12.886854 2.577371-23.196338 10.309483-30.92845 18.041596z"  horiz-adv-x="1649" />

    
    <glyph glyph-name="flowcontrol" unicode="&#58907;" d="M1001.6 320h-211.2c-12.8-3.2-22.4 3.2-25.6 16l-32 102.4L633.6-32s-3.2-25.6-16-25.6h-35.2c-9.6-3.2-22.4 3.2-25.6 16l-124.8 611.2L339.2 128c-3.2-9.6-16-19.2-25.6-16h-32c-12.8-3.2-22.4 3.2-25.6 16l-64 195.2H22.4c-12.8-3.2-22.4 6.4-22.4 16V384c0 12.8 9.6 22.4 22.4 22.4h211.2c12.8 0 22.4 0 25.6-12.8l32-102.4 92.8 480s3.2 16 19.2 16H448c9.6 3.2 22.4-3.2 25.6-16l121.6-604.8 89.6 435.2c3.2 9.6 12.8 19.2 22.4 16h35.2c12.8 3.2 22.4-3.2 25.6-16l60.8-198.4h169.6c12.8 0 22.4-9.6 22.4-22.4v-41.6c3.2-9.6-6.4-19.2-19.2-19.2z"  horiz-adv-x="1024" />

    
    <glyph glyph-name="flowcontrol3" unicode="&#58914;" d="M854.4 233.60000000000002c0 6.4 0 9.6-3.2 16v9.6c-6.4 25.6-19.2 51.2-19.2 51.2L553.6 864c-41.6 70.4-76.8 0-76.8 0L201.6 297.6c-12.8-28.8-12.8-54.4-12.8-54.4-3.2-16-3.2-28.8-3.2-44.8 0-179.2 150.4-326.4 336-326.4s336 147.2 336 326.4c-3.2 12.8-3.2 22.4-3.2 35.2m-332.8-9.6c-99.2 86.4-195.2 80-262.4 54.4l262.4 531.2 252.8-518.4c22.4-48 22.4-80 22.4-92.8-67.2-44.8-166.4-70.4-275.2 25.6m0 0z"  horiz-adv-x="1024" />

    
    <glyph glyph-name="config" unicode="&#59447;" d="M881.277 384c0 44.845 19.861 85.167 51.471 113.064 14.694 12.967 18.4 34.383 8.483 51.286l-70.568 120.292c-9.686 16.511-29.496 23.989-47.756 18.242-15.148-4.768-31.307-7.344-48.084-7.344-75.071 0-137.788 51.579-152.902 120.374C617.805 818.657 601.188 832 581.998 832H442.004c-19.19 0-35.807-13.343-39.925-32.086-15.114-68.795-77.831-120.374-152.904-120.374-16.775 0-32.932 2.576-48.079 7.344-18.259 5.747-38.069-1.73-47.756-18.241L82.767 548.351c-9.917-16.903-6.211-38.32 8.483-51.288 31.611-27.897 51.47-68.218 51.47-113.063 0-44.844-19.859-85.166-51.47-113.063-14.694-12.968-18.4-34.384-8.483-51.288l70.571-120.292c9.686-16.511 29.497-23.988 47.756-18.241 15.147 4.768 31.304 7.344 48.079 7.344 75.075 0 137.791-51.578 152.905-120.374C406.195-50.65700000000004 422.813-64 442.003-64H582c19.19 0 35.808 13.343 39.925 32.086 15.113 68.796 77.829 120.374 152.902 120.374 16.776 0 32.933-2.576 48.081-7.344 18.26-5.748 38.07 1.73 47.756 18.241l70.569 120.291c9.917 16.904 6.211 38.321-8.484 51.289-31.611 27.898-51.472 68.22-51.472 113.063zM824.37 146.92499999999995a224.648 224.648 0 0 1-49.543 5.535c-29.523 0-58.211-5.657-85.266-16.814-26.204-10.806-49.75-26.288-69.984-46.015-20.347-19.838-36.344-42.99-47.547-68.815A214.314 214.314 0 0 1 564.251 0H459.75a213.987 213.987 0 0 1-7.779 20.816c-11.203 25.825-27.2 48.978-47.547 68.815-20.234 19.728-43.78 35.209-69.984 46.015-27.056 11.157-55.744 16.814-85.267 16.814a224.63 224.63 0 0 1-49.541-5.535l-52.341 89.218a217.351 217.351 0 0 1 28.408 37.07A213.395 213.395 0 0 1 206.72 384a213.407 213.407 0 0 1-31.02 110.788 217.39 217.39 0 0 1-28.408 37.07l52.341 89.218a224.683 224.683 0 0 1 49.541-5.535c29.523 0 58.211 5.657 85.267 16.814 26.204 10.806 49.75 26.287 69.984 46.015 20.347 19.838 36.344 42.99 47.547 68.815a214.248 214.248 0 0 1 7.779 20.816h104.5a213.873 213.873 0 0 1 7.779-20.815c11.203-25.824 27.2-48.977 47.547-68.815 20.234-19.728 43.78-35.209 69.983-46.016 27.056-11.157 55.743-16.814 85.266-16.814a224.65 224.65 0 0 1 49.544 5.535l52.338-89.217A217.344 217.344 0 0 1 848.3 494.79a213.396 213.396 0 0 1-31.022-110.789A213.39 213.39 0 0 1 848.3 273.21400000000006a217.274 217.274 0 0 1 28.409-37.071l-52.339-89.218zM512 576c-106.039 0-192-85.961-192-192s85.961-192 192-192 192 85.961 192 192-85.961 192-192 192z m90.51-282.51C578.334 269.31399999999996 546.19 256 512 256s-66.334 13.314-90.51 37.49C397.314 317.66700000000003 384 349.80999999999995 384 384s13.314 66.334 37.49 90.51C445.666 498.686 477.81 512 512 512s66.334-13.314 90.51-37.49C626.686 450.334 640 418.19 640 384s-13.314-66.333-37.49-90.51z"  horiz-adv-x="1024" />

    
    <glyph glyph-name="lock" unicode="&#58967;" d="M800.421 459.475h-63.661v148.673c0 124.507-100.762 225.757-224.732 225.757-123.98 0-224.857-101.25-224.857-225.766v-148.662h-63.593c-30.667 0-55.532-24.952-55.532-55.752v-407.048c0-30.848 24.865-55.82 55.532-55.82h576.9c30.667 0 55.465 24.97 55.465 55.82v407.048c0 30.802-24.855 55.752-55.532 55.752zM543.203 189.591v-88.88c-0.016-4.026-3.264-7.287-7.282-7.325h-47.733c-4.039 0.022-7.307 3.287-7.334 7.322v88.882c-22.423 11.518-37.953 34.602-37.953 61.659 0 38.288 30.945 69.425 69.07 69.425 38.183 0 69.138-31.136 69.138-69.415 0.057-27.067-15.473-50.152-37.905-61.659zM650.514 459.475h-276.989v144.986c0 76.691 62.196 139.146 138.552 139.146 76.366 0 138.447-62.454 138.447-139.146v-144.986z"  horiz-adv-x="1024" />

    
    <glyph glyph-name="unlock" unicode="&#58968;" d="M116.587 455.829h564.044c29.993 0 54-24.755 54-55.687v-408.335c0-30.931-24.007-55.687-54-55.687h-564.044c-30.003 0-54 24.755-54 55.687v408.335c0 30.931 23.997 55.687 54 55.687zM368.607 183.60299999999995v-86.618c0-6.187 5.997-6.187 5.997-6.187h48.003c6.007 0 6.007 6.187 6.007 6.187v86.618c23.997 12.372 36 37.118 36 61.864 0 37.128-30.003 68.059-66.003 68.059s-66.013-30.931-66.013-68.049c0-30.941 12.003-49.5 36-61.872zM900.705 598.9010000000001c0 74.236-61.864 142.295-142.295 142.295-74.245 0-142.295-61.864-142.295-142.295v-148.491h-80.431v154.677c0 123.736 98.991 228.913 228.913 228.913 123.736 0 228.922-98.991 228.922-228.913v-148.491h-86.618l-6.187 142.295z"  horiz-adv-x="1067" />

    
    <glyph glyph-name="outpool" unicode="&#58909;" d="M271.058824 85.83529399999998h481.882352v60.235294h-481.882352zM180.705882 838.776471c-66.258824 0-120.470588-54.211765-120.470588-120.470589v-662.588235c0-66.258824 54.211765-120.470588 120.470588-120.470588h662.588236c66.258824 0 120.470588 54.211765 120.470588 120.470588v662.588235c0 66.258824-54.211765 120.470588-120.470588 120.470589h-90.352942v-60.235295h90.352942c36.141176 0 60.235294-24.094118 60.235294-60.235294v-662.588235c0-30.117647-24.094118-60.235294-60.235294-60.235294h-662.588236c-30.117647 0-60.235294 24.094118-60.235294 60.235294v662.588235c0 30.117647 24.094118 60.235294 60.235294 60.235294h102.4v60.235295h-102.4zM548.141176 597.835294v-373.458823h-60.235294v373.458823l-102.4-108.423529-42.164706 42.164706 174.682353 180.705882 180.705883-180.705882-42.164706-42.164706-108.42353 108.423529z"  horiz-adv-x="1024" />

    
    <glyph glyph-name="quxiao" unicode="&#58895;" d="M512-128C229.229714-128 0 101.229714 0 384S229.229714 896 512 896s512-229.229714 512-512-229.229714-512-512-512z m0 950.857143C283.087238 822.857143 73.142857 612.912762 73.142857 384s209.944381-438.857143 438.857143-438.857143 438.857143 209.944381 438.857143 438.857143S740.912762 822.857143 512 822.857143z m229.449143-671.963429a48.713143 48.713143 0 0 0-68.949333 0l-155.160381 155.136-155.160381-155.136a48.737524 48.737524 0 1 0-68.973715 68.949334l155.160381 155.160381-155.160381 155.160381a48.761905 48.761905 0 0 0 68.973715 68.949333l155.160381-155.160381 155.160381 155.160381a48.761905 48.761905 0 1 0 68.949333-68.949333l-155.160381-155.160381 155.160381-155.160381a48.761905 48.761905 0 0 0 0-68.949334z"  horiz-adv-x="1024" />

    
    <glyph glyph-name="filter" unicode="&#58955;" d="M447.93-32.049999999999955A64.13 64.13 0 0 0 384 32V352.42999999999995L81.5 679.1A64 64 0 0 0 128 787h0.25l767.88-6a64 64 0 0 0 46.29-108L640 352.26V96a32 32 0 0 0-14.84-27l-145.72-92.62a32 32 0 0 0-2.85-1.61 64 64 0 0 0-28.66-6.82zM128 723l0.31-0.33 311.11-336A32 32 0 0 0 448 365v-332.79l128 81.34V365a32 32 0 0 0 8.72 22l311.14 329.85 0.14 0.15h-0.25z m768.12-5.85"  horiz-adv-x="1024" />

    
    <glyph glyph-name="pool" unicode="&#58942;" d="M512 844.8c-253.44 0-460.8-207.36-460.8-460.8s207.36-460.8 460.8-460.8 460.8 207.36 460.8 460.8-207.36 460.8-460.8 460.8z m0-870.4c-225.28 0-409.6 184.32-409.6 409.6s184.32 409.6 409.6 409.6 409.6-184.32 409.6-409.6-184.32-409.6-409.6-409.6zM512 368.64V563.2c0 12.8-12.8 25.6-25.6 25.6s-25.6-12.8-25.6-25.6v-204.8c0-2.56 0-5.12 2.56-10.24 0-2.56 2.56-2.56 2.56-5.12 0 0 0-2.56 2.56-2.56l186.88-186.88c10.24-10.24 25.6-10.24 35.84 0s10.24 25.6 0 35.84l-179.2 179.2z"  horiz-adv-x="1024" />

    
    <glyph glyph-name="cancel" unicode="&#58958;" d="M512 784c54 0 106.4-10.6 155.7-31.4 47.6-20.1 90.4-49 127.2-85.7 36.7-36.7 65.6-79.5 85.7-127.2 20.8-49.3 31.4-101.7 31.4-155.7s-10.6-106.4-31.4-155.7c-20.1-47.6-49-90.4-85.7-127.2-36.7-36.7-79.5-65.6-127.2-85.7-49.3-20.8-101.7-31.4-155.7-31.4s-106.4 10.6-155.7 31.4c-47.6 20.1-90.4 49-127.2 85.7-36.7 36.7-65.6 79.5-85.7 127.2-20.8 49.3-31.4 101.7-31.4 155.7s10.6 106.4 31.4 155.7c20.1 47.6 49 90.4 85.7 127.2 36.7 36.7 79.5 65.6 127.2 85.7 49.3 20.8 101.7 31.4 155.7 31.4M512 824c-243 0-440-197-440-440s197-440 440-440 440 197 440 440-197 440-440 440zM688.8 589.1l-176.8-176.8-176.8 176.8-28.3-28.3 176.8-176.8-176.8-176.8 28.3-28.3 176.8 176.8 176.8-176.8 28.3 28.3-176.8 176.8 176.8 176.8-28.3 28.3z"  horiz-adv-x="1024" />

    
    <glyph glyph-name="info" unicode="&#58998;" d="M542 669.4c33.6 0 66.2-6.6 97-19.7 29.8-12.6 56.5-30.7 79.6-53.8 23-23 41.1-49.8 53.8-79.6 13.1-30.8 19.7-63.4 19.7-97v-330H232v330c0 33.6 6.6 66.2 19.7 97 12.6 29.8 30.7 56.5 53.8 79.6 23 23 49.8 41.1 79.6 53.8 30.8 13.1 63.4 19.7 97 19.7H542m0 40h-60c-159.5 0-290-130.5-290-290v-370h640v370c0 159.5-130.5 290-290 290z m370-620H112v-40h800v40z m-300-53.8h-40v-40.8H452v40.8h-40v-80.8h200v80.8zM512 773.2c31.2 0 56.9-23.9 59.7-54.3-9.9 0.9-19.8 1.4-29.7 1.4h-60c-9.9 0-19.8-0.5-29.7-1.4 2.8 30.4 28.5 54.3 59.7 54.3m0 40c-55.2 0-100-44.8-100-100 0-14.1 2.9-27.5 8.2-39.7 19.9 4.4 40.6 6.7 61.8 6.7h60c21.2 0 41.9-2.3 61.8-6.7 5.3 12.2 8.2 25.6 8.2 39.7 0 55.2-44.8 100-100 100z m310-641.1H202v-40h620v40z"  horiz-adv-x="1024" />

    
    <glyph glyph-name="edit" unicode="&#59599;" d="M684.202667 778.752c15.893333 15.872 42.154667 15.36 58.922666-1.408l90.517334-90.517333c16.661333-16.661333 17.344-42.986667 1.429333-58.922667l-445.653333-445.653333c-7.936-7.914667-23.104-16.746667-34.218667-19.776l-143.701333-39.253334c-21.909333-5.994667-35.114667 7.104-29.568 28.949334l37.248 146.773333c2.773333 10.944 11.562667 26.346667 19.392 34.176l445.653333 445.653333zM268.736 302.93333299999995c-2.901333-2.901333-8.106667-12.074667-9.130667-16.021333l-29.12-114.773333 111.957334 30.570666c4.437333 1.216 13.632 6.549333 16.810666 9.728l445.653334 445.653334-90.517334 90.496-445.653333-445.653334zM682.794667 717.013333l90.517333-90.517333-30.186667-30.186667-90.496 90.517334 30.165334 30.165333z m-362.026667-362.048l90.496-90.517333-30.165333-30.165333-90.517334 90.496 30.165334 30.186666zM170.666667 21.33333300000004c0 11.776 9.429333 21.333333 21.461333 21.333334h661.077333a21.333333 21.333333 0 1 0 0-42.666667H192.128A21.333333 21.333333 0 0 0 170.666667 21.33333300000004z"  horiz-adv-x="1024" />

    
    <glyph glyph-name="guanli" unicode="&#58930;" d="M358.706587 656.862275C358.706587 754.97006 278.994012 834.682635 180.886228 834.682635 82.778443 834.682635 3.065868 754.97006 3.065868 656.862275c0-49.053892 18.39521-91.976048 49.053892-122.63473-6.131737-36.790419-12.263473-73.580838-12.263473-110.371258 0-171.688623 91.976048-318.850299 220.742515-398.562874l36.79042 147.161677c-73.580838 61.317365-116.502994 153.293413-116.502994 251.401197 0 18.39521 0 36.790419 6.131736 55.185629 91.976048 0 171.688623 79.712575 171.688623 177.820359z m153.293413 98.107785c61.317365 0 116.502994-18.39521 165.556886-42.922156-6.131737-18.39521-12.263473-42.922156-12.263473-61.317365 0-98.107784 79.712575-177.820359 177.820359-177.820359s177.820359 79.712575 177.82036 177.820359c0 98.107784-79.712575 177.820359-177.82036 177.820359-24.526946 0-42.922156-6.131737-67.449101-12.263473C702.083832 865.341317 610.107784 896 512 896 444.550898 896 377.101796 883.736527 321.916168 853.077844l79.712575-116.502994c36.790419 12.263473 73.580838 18.39521 110.371257 18.39521z m331.113772-343.377246c-6.131737-122.634731-73.580838-226.874251-177.820359-275.928143-30.658683 55.185629-91.976048 98.107784-159.42515 98.107784-98.107784 0-177.820359-79.712575-177.820359-177.820359 0-98.107784 79.712575-177.820359 177.820359-177.820359 73.580838 0 134.898204 42.922156 165.556887 110.371257 183.952096 67.449102 312.718563 239.137725 312.718563 441.48503v30.658683c-6.131737-6.131737-141.02994-49.053892-141.029941-49.053893z"  horiz-adv-x="1024" />

    
    <glyph glyph-name="weather" unicode="&#59117;" d="M288 128h448a160 160 0 0 1 0 320 224 224 0 0 1-448 0 160 160 0 0 1 0-320z m0-64a224 224 0 0 0-58.496 440.288C255.68 636.384 372.224 736 512 736c139.808 0 256.32-99.616 282.496-231.712A224 224 0 0 0 736 64H288z"  horiz-adv-x="1024" />

    
    <glyph glyph-name="time" unicode="&#58884;" d="M512 839.111c-250.311 0-455.111-204.8-455.111-455.111S261.689-71.11099999999999 512-71.11099999999999 967.111 133.68899999999996 967.111 384 762.311 839.111 512 839.111m0-853.333c-221.867 0-398.222 176.355-398.222 398.222S290.133 782.222 512 782.222 910.222 605.867 910.222 384 733.867-14.22199999999998 512-14.22199999999998M512 384V668.444h-56.889v-341.333h284.445V384z"  horiz-adv-x="1024" />

    
    <glyph glyph-name="public" unicode="&#58885;" d="M51.2 384l278.756-136.533 22.755 45.51L176.356 384l671.288 364.089L398.222 224.71000000000004V-71.11000000000001h56.89V201.95600000000002l460.8 534.755L773.688 31.289999999999964 529.067 179.20000000000005l-34.134-45.511L819.2-59.73299999999995 1006.933 890.31z"  horiz-adv-x="1024" />

    
    <glyph glyph-name="systemconfig" unicode="&#58965;" d="M278.8 275.6V767.9h-46v-492.3c-54.6-10.7-95.9-59-95.9-116.7s41.3-105.9 95.9-116.7v-42h46v42c54.6 10.7 95.9 59 95.9 116.7 0 57.8-41.3 106-95.9 116.7z m-23-189.6c-40.2 0-72.9 32.7-72.9 72.9s32.7 72.9 72.9 72.9 72.9-32.7 72.9-72.9c0-40.1-32.7-72.9-72.9-72.9zM534.8 501.9v266h-46v-266.3c-54.2-11.1-95-59.1-95-116.5s40.9-105.4 95-116.5v-268.3h46v268c55 10.4 96.8 58.8 96.8 116.8s-41.7 106.4-96.8 116.8z m-22.1-189.7c-40.2 0-72.9 32.7-72.9 72.9s32.7 72.9 72.9 72.9 72.9-32.7 72.9-72.9-32.7-72.9-72.9-72.9zM887.2 608.1c0 57.8-41.5 106.2-96.3 116.7v42.9h-46v-43.1c-54.4-10.9-95.5-59-95.5-116.6 0-57.6 41.1-105.7 95.5-116.6V0h46V491.2c54.7 10.7 96.3 59 96.3 116.9z m-119-73c-40.2 0-72.9 32.7-72.9 72.9s32.7 72.9 72.9 72.9 72.9-32.7 72.9-72.9c0.1-40.2-32.7-72.9-72.9-72.9z"  horiz-adv-x="1024" />

    
    <glyph glyph-name="flowcontrol4" unicode="&#58996;" d="M832 768H192a64.19 64.19 0 0 1-64-64v-640a64.19 64.19 0 0 1 64-64h640a64.19 64.19 0 0 1 64 64V704a64.19 64.19 0 0 1-64 64zM653.92 340.35l-45.25-45.25L472.9 430.86 269.25 227.22000000000003 224 272.47l203.65 203.65 45.25 45.25 135.77-135.76 142.86 142.86 45.25-45.25z"  horiz-adv-x="1024" />

    
    <glyph glyph-name="arr" unicode="&#58882;" d="M915.532 324.05899999999997h-722.11c-20.583 0-38.205 11.432-46.482 27.84l-79.395 79.396c-14.224 14.224-14.224 37.259 0 51.482s37.258 14.224 51.482 0l84.711-84.687 240.687 28.035-221.633 221.633c-20.146 20.146-21.117 51.846-2.16 70.803 18.932 18.957 50.657 17.986 70.803-2.16l370.86-264.911 156.122 18.204c81.338 0 148.67-70.293 148.67-97.09s-23.06-48.545-51.555-48.545zM202.524 154.14999999999998h631.088c20.098 0 36.409-16.311 36.409-36.41s-16.311-36.408-36.41-36.408H202.525c-20.097 0-36.408 16.311-36.408 36.409s16.31 36.409 36.408 36.409z"  horiz-adv-x="1024" />

    
    <glyph glyph-name="dep" unicode="&#58883;" d="M925.144 508.118L227.622 321.24300000000005c-19.879-5.34-39.88 1.141-52.113 14.855l-97.212 56.118c-17.427 10.05-23.374 32.307-13.325 49.735s32.33 23.374 49.734 13.325l103.717-59.904 225.25 89.396-271.465 156.728c-24.661 14.248-33.812 44.613-20.389 67.842 13.398 23.204 44.273 30.486 68.934 16.238l426.785-159.884L793.66 623.6800000000001c78.546 21.044 161.777-29.419 168.719-55.293 6.942-25.923-9.758-52.915-37.234-60.27zM148.25 153.447h631.087c20.098 0 36.41-16.311 36.41-36.41s-16.312-36.408-36.41-36.408H148.251c-20.122 0-36.409 16.311-36.409 36.409s16.311 36.409 36.409 36.409z"  horiz-adv-x="1024" />

    
    <glyph glyph-name="reject" unicode="&#59051;" d="M1011.2-70.39999999999998l-83.2 83.2c19.2 32 38.4 70.4 38.4 108.8V652.8c0 6.4 0 12.8-6.4 19.2-25.6 38.4-57.6 64-96 64-19.2 0-32-6.4-44.8-12.8V768c0 6.4 0 12.8-6.4 19.2-32 38.4-64 57.6-96 57.6-19.2 0-32-6.4-44.8-12.8-32 44.8-70.4 64-108.8 64-44.8 0-76.8-32-96-51.2-19.2 12.8-44.8 19.2-64 19.2-64 0-102.4-57.6-108.8-64-12.8-12.8-19.2-19.2-19.2-25.6v-108.8L57.6 883.2C44.8 896 25.6 896 12.8 883.2S0 851.2 12.8 838.4L275.2 576v-192L198.4 448c-44.8 38.4-83.2 51.2-121.6 32C19.2 460.8 6.4 371.20000000000005 6.4 364.79999999999995c0-6.4 0-12.8 6.4-19.2 19.2-32 204.8-339.2 230.4-371.2C313.6-108.79999999999995 448-128 556.8-128c76.8 0 140.8 6.4 179.2 12.8 51.2 6.4 108.8 38.4 153.6 76.8l83.2-83.2c6.4-6.4 12.8-6.4 25.6-6.4s19.2 0 25.6 6.4c0 19.2 0 38.4-12.8 51.2z m-454.4 896c19.2 0 38.4-12.8 51.2-32V384c0-19.2 12.8-32 32-32s32 12.8 32 32V755.2c6.4 12.8 25.6 25.6 44.8 25.6 12.8 0 25.6-12.8 38.4-25.6v-364.8c0-19.2 12.8-32 32-32s32 12.8 32 32v256c6.4 12.8 25.6 25.6 44.8 25.6 12.8 0 32-12.8 38.4-25.6v-524.8c0-19.2-6.4-44.8-19.2-64L505.6 435.2V800c12.8 6.4 32 25.6 51.2 25.6z m-217.6-64c12.8 12.8 32 32 51.2 32 12.8 0 32-6.4 44.8-25.6v-275.2L339.2 601.6V761.6z m384-812.8c-153.6-25.6-352-25.6-428.8 64-19.2 19.2-140.8 224-224 352 6.4 19.2 19.2 51.2 32 57.6 12.8 6.4 32-6.4 57.6-25.6l128-115.2c12.8-6.4 25.6-6.4 32 0 12.8 6.4 19.2 19.2 19.2 32V512l102.4-102.4v-19.2c0-19.2 12.8-32 32-32h12.8l352-352c-32-25.6-76.8-51.2-115.2-57.6z"  horiz-adv-x="1024" />

    
    <glyph glyph-name="inpool" unicode="&#58889;" d="M842.885223 815.593334h-82.127746v-44.877008h82.127746c20.938792 0 37.973227-17.035651 37.973226-37.974443v-696.943724c0-20.938792-17.034434-37.973227-37.973226-37.973227H181.112345c-20.938792 0-37.973227 17.034434-37.973227 37.973227V732.743099c0 20.938792 17.034434 37.974443 37.973227 37.974444h82.127746V815.593334H181.112345c-45.757617 0-82.850235-37.093834-82.850235-82.851451v-696.943724c0-45.757617 37.093834-82.851451 82.850235-82.851451h661.772878c45.757617 0 82.850235 37.093834 82.850234 82.851451V732.743099c0 45.757617-37.092618 82.850235-82.850234 82.850235zM511.998784 211.69374600000003L354.658019 369.03329399999996l31.693414 31.693414 125.647351-125.646135 125.64735 125.646135 31.692198-31.693414zM261.757408 141.37637900000004h500.485184v-44.821057H261.757408zM489.588255 689.995852h44.821057v-453.356785h-44.821057z"  horiz-adv-x="1024" />

    
    <glyph glyph-name="runway" unicode="&#59199;" d="M204.8-66.56c-1.92 0-3.2 0.64-5.12 1.92-3.2 2.56-3.84 7.68-1.28 10.88l226.56 273.92c2.56 3.2 7.68 3.84 10.88 1.28 3.2-2.56 3.84-7.68 1.28-10.88l-226.56-273.92c-1.28-1.92-3.2-3.2-5.76-3.2zM382.08 204.16c-1.92 0-4.48 0.64-5.76 1.92-3.84 3.2-4.48 8.96-1.28 13.44l1.28 1.28c3.2 3.84 8.96 4.48 13.44 1.28 3.84-3.2 4.48-8.96 1.28-13.44l-1.28-1.28c-1.92-1.92-4.48-3.2-7.68-3.2zM193.92-23.68c-1.92 0-4.48 0.64-5.76 1.92-3.84 3.2-4.48 8.96-1.28 13.44l1.92 1.92c3.2 3.84 8.96 4.48 13.44 1.28 3.84-3.2 4.48-8.96 1.28-13.44l-1.92-1.92c-2.56-1.92-5.12-3.2-7.68-3.2z m37.76 45.44c-1.92 0-4.48 0.64-5.76 1.92-3.84 3.2-4.48 8.96-1.28 13.44l1.92 1.92c3.2 3.84 8.96 4.48 13.44 1.28 3.84-3.2 4.48-8.96 1.28-13.44l-1.92-1.92c-2.56-1.92-5.12-3.2-7.68-3.2z m37.76 45.44c-1.92 0-4.48 0.64-5.76 1.92-3.84 3.2-4.48 8.96-1.28 13.44l1.92 1.92c3.2 3.84 8.96 4.48 13.44 1.28 3.84-3.2 4.48-8.96 1.28-13.44l-1.92-1.92c-2.56-1.92-5.12-3.2-7.68-3.2z m37.76 46.08c-1.92 0-4.48 0.64-5.76 1.92-3.84 3.2-4.48 8.96-1.28 13.44l1.92 1.92c3.2 3.84 8.96 4.48 13.44 1.28 3.84-3.2 4.48-8.96 1.28-13.44l-1.92-1.92c-2.56-1.92-5.12-3.2-7.68-3.2z m37.76 45.44c-1.92 0-4.48 0.64-5.76 1.92-3.84 3.2-4.48 8.96-1.28 13.44l1.92 1.92c3.2 3.84 8.96 4.48 13.44 1.28 3.84-3.2 4.48-8.96 1.28-13.44l-1.92-1.92c-2.56-1.92-5.12-3.2-7.68-3.2zM156.8-68.48c-1.92 0-4.48 0.64-5.76 1.92-3.84 3.2-4.48 8.96-1.28 13.44l1.28 1.28c3.2 3.84 8.96 4.48 13.44 1.28 3.84-3.2 4.48-8.96 1.28-13.44l-1.28-1.28c-1.92-1.92-4.48-3.2-7.68-3.2zM808.96-65.92c-1.92 0-4.48 0.64-5.76 2.56l-226.56 273.28c-2.56 3.2-1.92 7.68 1.28 10.88 3.2 2.56 7.68 1.92 10.88-1.28l226.56-273.28c2.56-3.2 1.92-7.68-1.28-10.88-1.28-0.64-3.2-1.28-5.12-1.28zM636.8 204.8c-2.56 0-5.12 1.28-7.04 3.2l-1.28 1.28c-3.2 3.84-2.56 9.6 1.28 13.44 3.84 3.2 9.6 2.56 13.44-1.28l1.28-1.28c3.2-3.84 2.56-9.6-1.28-13.44-2.56-1.28-4.48-1.92-6.4-1.92zM825.6-23.04c-2.56 0-5.12 1.28-7.04 3.2l-1.92 1.92c-3.2 3.84-2.56 9.6 1.28 13.44 3.84 3.2 9.6 2.56 13.44-1.28l1.92-1.92c3.2-3.84 2.56-9.6-1.28-13.44-2.56-1.28-4.48-1.92-6.4-1.92z m-37.76 45.44c-2.56 0-5.12 1.28-7.04 3.2l-1.92 1.92c-3.2 3.84-2.56 9.6 1.28 13.44 3.84 3.2 9.6 2.56 13.44-1.28l1.92-1.92c3.2-3.84 2.56-9.6-1.28-13.44-2.56-1.28-4.48-1.92-6.4-1.92z m-37.76 45.44c-2.56 0-5.12 1.28-7.04 3.2l-1.92 1.92c-3.2 3.84-2.56 9.6 1.28 13.44 3.84 3.2 9.6 2.56 13.44-1.28l1.92-1.92c3.2-3.84 2.56-9.6-1.28-13.44-2.56-1.28-4.48-1.92-6.4-1.92z m-37.76 45.44c-2.56 0-5.12 1.28-7.04 3.2l-1.92 1.92c-3.2 3.84-2.56 9.6 1.28 13.44 3.84 3.2 9.6 2.56 13.44-1.28l1.92-1.92c3.2-3.84 2.56-9.6-1.28-13.44-2.56-1.28-4.48-1.92-6.4-1.92z m-37.76 45.44c-2.56 0-5.12 1.28-7.04 3.2l-1.92 1.92c-3.2 3.84-2.56 9.6 1.28 13.44 3.84 3.2 9.6 2.56 13.44-1.28l1.92-1.92c3.2-3.84 2.56-9.6-1.28-13.44-2.56-0.64-4.48-1.92-6.4-1.92zM862.08-67.84c-2.56 0-5.12 1.28-7.04 3.2l-1.28 1.28c-3.2 3.84-2.56 9.6 1.28 13.44 3.84 3.2 9.6 2.56 13.44-1.28l1.28-1.28c3.2-3.84 2.56-9.6-1.28-13.44-1.92-1.28-3.84-1.92-6.4-1.92zM506.88 206.08c-4.48 0-7.68 3.2-7.68 7.68v1.28c0 4.48 3.2 7.68 7.68 7.68s7.68-3.2 7.68-7.68v-1.28c0-4.48-3.84-7.68-7.68-7.68zM506.88-46.72c-4.48 0-7.68 3.2-7.68 7.68v3.2c0 4.48 3.2 7.68 7.68 7.68s7.68-3.2 7.68-7.68v-3.2c0-3.84-3.2-7.68-7.68-7.68z m0 21.12c-4.48 0-7.68 3.2-7.68 7.68v3.2c0 4.48 3.2 7.68 7.68 7.68s7.68-3.2 7.68-7.68v-3.2c0-4.48-3.2-7.68-7.68-7.68z m0 21.12c-4.48 0-7.68 3.2-7.68 7.68v3.2c0 4.48 3.2 7.68 7.68 7.68s7.68-3.2 7.68-7.68v-3.2c0-4.48-3.2-7.68-7.68-7.68z m0 21.12c-4.48 0-7.68 3.2-7.68 7.68v3.2c0 4.48 3.2 7.68 7.68 7.68s7.68-3.2 7.68-7.68v-3.2c0-4.48-3.2-7.68-7.68-7.68z m0 21.12c-4.48 0-7.68 3.2-7.68 7.68v3.2c0 4.48 3.2 7.68 7.68 7.68s7.68-3.2 7.68-7.68v-3.2c0-4.48-3.2-7.68-7.68-7.68z m0 21.12c-4.48 0-7.68 3.2-7.68 7.68v3.2c0 4.48 3.2 7.68 7.68 7.68s7.68-3.2 7.68-7.68v-3.2c0-4.48-3.2-7.68-7.68-7.68z m0 20.48c-4.48 0-7.68 3.2-7.68 7.68v3.2c0 4.48 3.2 7.68 7.68 7.68s7.68-3.2 7.68-7.68v-3.2c0-3.84-3.2-7.68-7.68-7.68z m0 21.12c-4.48 0-7.68 3.2-7.68 7.68v3.2c0 4.48 3.2 7.68 7.68 7.68s7.68-3.2 7.68-7.68v-3.2c0-3.84-3.2-7.68-7.68-7.68z m0 21.12c-4.48 0-7.68 3.2-7.68 7.68v3.2c0 4.48 3.2 7.68 7.68 7.68s7.68-3.2 7.68-7.68v-3.2c0-4.48-3.84-7.68-7.68-7.68z m0 21.12c-4.48 0-7.68 3.2-7.68 7.68v3.2c0 4.48 3.2 7.68 7.68 7.68s7.68-3.2 7.68-7.68v-3.2c0-4.48-3.2-7.68-7.68-7.68z m0 21.12c-4.48 0-7.68 3.2-7.68 7.68v3.2c0 4.48 3.2 7.68 7.68 7.68s7.68-3.2 7.68-7.68v-3.2c0-4.48-3.84-7.68-7.68-7.68z m0 21.12c-4.48 0-7.68 3.2-7.68 7.68v3.2c0 4.48 3.2 7.68 7.68 7.68s7.68-3.2 7.68-7.68v-3.2c0-4.48-3.84-7.68-7.68-7.68zM506.88-65.92c-4.48 0-7.68 3.2-7.68 7.68v1.28c0 4.48 3.2 7.68 7.68 7.68s7.68-3.2 7.68-7.68v-1.28c0-4.48-3.2-7.68-7.68-7.68zM53.76 240c-1.92 0-3.84 0.64-5.12 1.92-1.28 1.28-1.92 3.2-1.92 5.12v48c0 2.56 1.28 5.12 3.84 6.4 2.56 1.28 5.12 1.28 7.68 0L89.6 281.6l29.44 43.52c1.92 2.56 5.12 3.84 8.32 3.2 3.2-0.64 5.12-3.84 5.76-7.04l2.56-42.24H153.6l16 25.6c1.28 1.92 3.2 3.2 5.12 3.2 1.92 0.64 4.48 0 5.76-1.28l14.72-11.52 17.92 29.44c1.28 2.56 3.84 3.84 6.4 3.84s5.12-1.28 6.4-3.84l19.84-33.28H262.4v14.72c0 4.48 3.2 7.68 7.68 7.68h23.04c4.48 0 7.68-3.2 7.68-7.68v-14.72h10.24v37.12c0 4.48 3.2 7.68 7.68 7.68h24.96c4.48 0 7.68-3.2 7.68-7.68v-46.08h16V288c0 4.48 3.2 7.68 7.68 7.68h20.48c4.48 0 7.68-3.2 7.68-7.68v-23.68h21.12v47.36c0 4.48 3.2 7.68 7.68 7.68h24.32c4.48 0 7.68-3.2 7.68-7.68v-39.04h7.04V288c0 4.48 3.2 7.68 7.68 7.68H512c4.48 0 7.68-3.2 7.68-7.68v-0.64c1.28 0.64 2.56 1.28 3.84 1.28h44.8c4.48 0 7.68-3.2 7.68-7.68v-5.76h24.32v53.76c0 4.48 3.2 7.68 7.68 7.68h33.28c4.48 0 7.68-3.2 7.68-7.68v-16.64h8.32c4.48 0 7.68-3.2 7.68-7.68v-25.6h6.4v42.88c0 4.48 3.2 7.68 7.68 7.68h30.08c4.48 0 7.68-3.2 7.68-7.68v-14.08c1.28 1.92 3.84 3.2 6.4 3.2h26.24c4.48 0 7.68-3.2 7.68-7.68v-7.68h25.6l16.64 16.64c1.92 1.92 4.48 2.56 6.4 1.92 2.56-0.64 4.48-1.92 5.76-4.48l6.4-14.72h10.24l16.64 21.76c1.28 1.92 4.48 3.2 7.04 3.2 2.56 0 5.12-1.92 5.76-4.48l10.88-23.04 12.8-8.96 8.96 24.32c0.64 2.56 3.2 4.48 5.76 5.12 2.56 0.64 5.12-0.64 7.04-2.56l14.08-15.36h20.48c2.56 0 5.12-1.28 6.4-3.84l22.4-39.68c1.28-2.56 1.28-5.12 0-7.68-1.28-2.56-3.84-3.84-6.4-3.84H53.76zM61.44 281.6v-26.88h326.4V279.68h-5.76v-4.48c0-4.48-3.2-7.68-7.68-7.68h-30.72c-4.48 0-7.68 3.2-7.68 7.68v46.08h-10.24v-37.12c0-4.48-3.2-7.68-7.68-7.68h-24.96c-4.48 0-7.68 3.2-7.68 7.68v14.72h-7.68v-14.72c0-4.48-3.2-7.68-7.68-7.68h-29.44c-2.56 0-5.12 1.28-6.4 3.84l-15.36 25.6-15.36-25.6c-1.28-1.92-3.2-3.2-5.12-3.84-1.92-0.64-4.48 0-5.76 1.28l-14.72 11.52-13.44-22.4c-1.28-2.56-3.84-3.84-6.4-3.84h-29.44c-3.84 0-7.04 3.2-7.68 7.04l-1.28 26.88-20.48-30.72c-2.56-3.2-7.04-4.48-10.24-1.92L61.44 281.6z m377.6 22.4V255.36l508.16 0.64-14.08 24.96h-19.84c-1.92 0-4.48 0.64-5.76 2.56l-7.68 8.32-7.68-21.12c-0.64-1.92-2.56-3.84-4.48-4.48-1.92-0.64-4.48-0.64-6.4 0.64l-22.4 15.36c-1.28 0.64-1.92 1.92-2.56 3.2l-6.4 13.44-11.52-14.72c-1.28-1.92-3.84-3.2-5.76-3.2h-19.2c-3.2 0-5.76 1.92-7.04 4.48l-3.84 8.96-11.52-11.52c-1.28-1.28-3.2-1.92-5.12-1.92H748.8c-4.48 0-7.68 3.2-7.68 7.68v7.68h-10.88V288c0-4.48-3.2-7.68-7.68-7.68h-14.08c-4.48 0-7.68 3.2-7.68 7.68v26.24h-14.72v-42.88c0-4.48-3.2-7.68-7.68-7.68h-21.76c-4.48 0-7.68 3.2-7.68 7.68v25.6h-0.64v-25.6c0-4.48-3.2-7.68-7.68-7.68s-7.68 3.2-7.68 7.68v49.92h-17.92v-53.76c0-4.48-3.2-7.68-7.68-7.68h-39.04c-4.48 0-7.68 3.2-7.68 7.68v5.76H531.2v-4.48c0-4.48-3.2-7.68-7.68-7.68H512c-4.48 0-7.68 3.2-7.68 7.68v11.52h-19.2v-16c0-4.48-3.2-7.68-7.68-7.68h-22.4c-4.48 0-7.68 3.2-7.68 7.68v39.04h-8.32zM507.52 486.4c-76.16 0-138.24 62.08-138.24 138.24 0 76.16 62.08 138.24 138.24 138.88 76.16 0 138.24-62.08 138.24-138.24 0-37.12-14.08-71.68-40.32-97.92-25.6-26.24-60.8-40.96-97.92-40.96z m0 261.76C439.68 748.16 384 692.48 384 624.64c0-67.84 55.68-122.88 123.52-122.88 32.64 0 64 12.8 87.04 36.48 23.04 23.04 35.84 54.4 35.84 87.04 0.64 67.84-54.4 122.88-122.88 122.88zM407.68 650.24c-2.56 0-4.48 1.28-6.4 3.2-1.28 1.92-1.92 4.48-1.28 7.04 3.84 12.16 9.6 24.32 17.28 34.56 1.28 1.92 3.84 3.2 6.4 3.2h167.68c2.56 0 4.48-1.28 6.4-3.2 7.68-10.24 13.44-22.4 17.28-34.56 0.64-2.56 0-5.12-1.28-7.04-1.28-1.92-3.84-3.2-6.4-3.2H407.68z m20.48 32.64c-3.84-5.12-7.04-10.88-9.6-17.28h178.56c-2.56 5.76-5.76 11.52-9.6 17.28H428.16zM507.52 650.24c-4.48 0-7.68 3.2-7.68 7.68v32c0 4.48 3.2 7.68 7.68 7.68s7.68-3.2 7.68-7.68v-32c0-3.84-3.2-7.68-7.68-7.68zM560 650.88c-4.48 0-7.68 3.2-7.68 7.68v32c0 4.48 3.2 7.68 7.68 7.68s7.68-3.2 7.68-7.68v-32c0-4.48-3.2-7.68-7.68-7.68zM455.68 650.24c-4.48 0-7.68 3.2-7.68 7.68v32c0 4.48 3.2 7.68 7.68 7.68s7.68-3.2 7.68-7.68v-32c0-3.84-3.84-7.68-7.68-7.68zM626.56 563.2c-4.48 0-7.68 3.2-7.68 7.68s3.2 7.68 7.68 7.68h355.84c1.92 0 4.48 0.64 5.76 2.56 1.28 1.28 2.56 3.84 2.56 5.76 0 1.92-0.64 4.48-2.56 5.76-1.28 1.28-3.84 2.56-5.76 2.56H636.16c-4.48 0-7.68 3.2-7.68 7.68s3.2 7.68 7.68 7.68h346.24c6.4 0 12.16-2.56 16.64-7.04 4.48-4.48 7.04-10.24 7.04-16.64s-2.56-12.16-7.04-16.64c-4.48-4.48-10.24-7.04-16.64-7.04H626.56zM33.28 562.56c-12.8 0-23.68 10.24-23.68 23.68 0 6.4 2.56 12.16 7.04 16.64 4.48 4.48 10.24 7.04 16.64 7.04h345.6c4.48 0 7.68-3.2 7.68-7.68s-3.2-7.68-7.68-7.68h-345.6c-1.92 0-4.48-0.64-5.76-2.56-1.28-1.28-2.56-3.84-2.56-5.76 0-4.48 3.84-8.32 8.32-8.32h355.84c4.48 0 7.68-3.2 7.68-7.68s-3.2-7.68-7.68-7.68H33.28zM491.52 747.52c-4.48 0-7.68 3.2-7.68 7.68V830.72c0 12.8 10.24 23.68 23.68 23.68 12.8 0 23.68-10.24 23.68-23.68V755.2c0-4.48-3.2-7.68-7.68-7.68s-7.68 3.2-7.68 7.68V830.72c0 3.84-3.84 7.68-8.32 7.68-4.48 0-8.32-3.84-8.32-8.32V755.2c0-4.48-3.2-7.68-7.68-7.68zM629.12 666.88c-4.48 0-7.68 3.2-7.68 7.68s3.2 7.68 7.68 7.68h27.52c4.48 0 8.32 3.84 8.32 8.32 0 1.92-0.64 4.48-2.56 5.76-1.28 1.28-3.84 2.56-5.76 2.56h-46.08c-4.48 0-7.68 3.2-7.68 7.68s3.2 7.68 7.68 7.68h46.08c12.8 0 23.68-10.24 23.68-23.68 0-12.8-10.24-23.68-23.68-23.68h-27.52zM359.04 666.88c-6.4 0-12.16 2.56-16.64 7.04-4.48 4.48-7.04 10.24-7.04 16.64 0 12.8 10.24 23.68 23.68 23.68h46.08c4.48 0 7.68-3.2 7.68-7.68s-3.2-7.68-7.68-7.68h-46.08c-4.48 0-8.32-3.84-8.32-8.32 0-1.92 0.64-4.48 2.56-5.76 1.28-1.28 3.84-2.56 5.76-2.56h27.52c4.48 0 7.68-3.2 7.68-7.68s-3.2-7.68-7.68-7.68h-27.52zM314.88 475.52c-28.16 0-51.2 23.04-51.2 51.2s23.04 51.2 51.2 51.2 51.2-23.04 51.2-51.2-23.04-51.2-51.2-51.2z m0 87.04c-9.6 0-18.56-3.84-25.6-10.88s-10.24-16-10.24-25.6c0-19.84 16-35.84 35.84-35.84 19.84 0 35.84 16 35.84 35.84 0 9.6-3.84 18.56-10.88 25.6-6.4 7.04-15.36 10.88-24.96 10.88zM507.52 582.4c-6.4 0-12.16 5.12-12.16 12.16 0 3.2 1.28 6.4 3.2 8.32 2.56 2.56 5.12 3.2 8.32 3.2s6.4-1.28 8.32-3.2c2.56-2.56 3.2-5.12 3.2-8.32 1.28-7.04-3.84-12.16-10.88-12.16z m0 14.72c-1.92 0-3.2-1.28-3.2-3.2 0-0.64 0.64-1.92 0.64-2.56 0.64-0.64 1.28-0.64 2.56-0.64 0.64 0 1.92 0.64 2.56 0.64 0.64 0.64 0.64 1.28 0.64 2.56 0 1.92-1.28 3.2-3.2 3.2zM700.8 476.16c-13.44 0-26.24 5.12-36.48 14.72-9.6 9.6-14.72 22.4-14.72 36.48 0 28.16 23.04 51.2 51.2 51.2 13.44 0 26.24-5.12 36.48-14.72 9.6-9.6 14.72-22.4 14.72-36.48 0-13.44-5.12-26.24-14.72-36.48-9.6-9.6-23.04-14.72-36.48-14.72z m0 87.04c-9.6 0-18.56-3.84-25.6-10.88s-10.24-16-10.24-25.6 3.84-18.56 10.88-25.6 16-10.24 25.6-10.24 18.56 3.84 25.6 10.88 10.24 16 10.24 25.6-3.84 18.56-10.88 25.6c-7.04 6.4-16 10.24-25.6 10.24zM700.8 497.92h-3.84c-3.84 0.64-7.04 4.48-6.4 8.32 0.64 3.84 4.48 7.04 8.32 6.4h1.92c4.48 0 7.68-3.2 7.68-7.68 0-3.84-3.2-7.04-7.68-7.04z m21.76 18.56h-1.28c-3.84 0.64-7.04 4.48-6.4 8.32v1.92c0 4.48 3.2 7.68 7.68 7.68s7.68-3.2 7.68-7.68h-7.68 7.68v-4.48c-0.64-3.2-3.84-5.76-7.68-5.76z m-43.52 3.2c-4.48 0-7.68 3.2-7.68 7.68V531.2c0.64 3.84 4.48 7.04 8.32 6.4 3.84-0.64 7.04-4.48 6.4-8.32v-1.92c0.64-4.48-3.2-7.68-7.04-7.68z m24.96 21.12h-3.2c-4.48 0-7.68 3.2-7.68 7.68s3.2 7.68 7.68 7.68h3.84c3.84-0.64 7.04-4.48 6.4-8.32-0.64-3.84-3.84-7.04-7.04-7.04zM314.88 497.28h-3.84c-3.84 0.64-7.04 4.48-6.4 8.32 0.64 3.84 4.48 7.04 8.32 6.4h1.92c4.48 0 7.68-3.2 7.68-7.68s-3.2-7.04-7.68-7.04z m21.76 18.56h-1.28c-3.84 0.64-7.04 4.48-6.4 8.32v1.92c0 4.48 3.2 7.68 7.68 7.68s7.68-3.2 7.68-7.68h-7.68 7.68v-4.48c-0.64-2.56-3.84-5.76-7.68-5.76z m-43.52 3.2c-4.48 0-7.68 3.2-7.68 7.68v0.64 3.84c0.64 3.84 4.48 7.04 8.32 6.4 3.84-0.64 7.04-4.48 6.4-8.32v-1.92c0.64-5.12-3.2-8.32-7.04-8.32z m24.32 21.76h-3.2c-4.48 0-7.68 3.2-7.68 7.68s3.2 7.68 7.68 7.68v-7.68 7.68h3.84c3.84-0.64 7.04-4.48 6.4-8.32 0-4.48-3.2-7.04-7.04-7.04zM197.12 475.52c-28.16 0-51.2 23.04-51.2 51.2 0 13.44 5.12 26.24 14.72 36.48 9.6 9.6 22.4 14.72 36.48 14.72 13.44 0 26.24-5.12 36.48-14.72 9.6-9.6 14.72-22.4 14.72-36.48 0-28.16-23.04-51.2-51.2-51.2z m0 87.04s-0.64 0 0 0c-9.6 0-18.56-3.84-25.6-10.88s-10.24-16-10.24-25.6 3.84-18.56 10.88-25.6 16-10.24 25.6-10.24 18.56 3.84 25.6 10.88 10.24 16 10.24 25.6-3.84 18.56-10.88 25.6c-7.04 6.4-16 10.24-25.6 10.24zM209.92 501.76c-2.56 0-4.48 1.28-5.76 3.2-2.56 3.2-1.92 8.32 1.28 10.88 0.64 0.64 1.28 0.64 1.28 1.28 0 0 5.12 5.76 10.88 0s0-10.88 0-10.88c-1.28-1.28-1.92-1.92-3.2-2.56-1.28-1.28-3.2-1.92-4.48-1.92z m-28.16 1.92c-1.92 0-3.84 0.64-5.76 2.56-0.64 0.64-1.92 1.92-2.56 3.2-2.56 3.2-1.92 8.32 1.28 10.88 3.2 2.56 8.32 1.92 10.88-1.28 0.64-0.64 0.64-1.28 1.28-1.28l0.64-0.64c2.56-3.2 2.56-7.68-1.28-10.88-1.28-1.92-3.2-2.56-4.48-2.56z m32.64 28.8c-2.56 0-4.48 1.28-5.76 3.2-0.64 0.64-0.64 1.28-1.28 1.28-3.2 3.2-3.2 7.68 0 10.88s7.68 3.2 10.88 0l-5.12-5.12 5.12 5.12c1.28-1.28 1.92-1.92 2.56-3.2 2.56-3.2 1.92-8.32-1.28-10.88-1.92-1.28-3.84-1.28-5.12-1.28z m-27.52 4.48c-7.68-7.68-18.56 2.56-10.88 10.88 0.64 1.28 1.92 1.92 3.2 2.56 3.2 2.56 8.32 1.92 10.88-1.28 2.56-3.2 1.92-8.32-1.28-10.88-1.28-0.64-1.28-1.28-1.92-1.28zM818.56 476.16c-28.16 0-51.2 23.04-51.2 51.2s23.04 51.2 51.2 51.2 51.2-23.04 51.2-51.2-22.4-51.2-51.2-51.2z m0 87.04c-19.84 0-35.84-16-35.84-35.84 0-9.6 3.84-18.56 10.88-25.6s16-10.24 25.6-10.24c19.84 0 35.84 16 35.84 35.84 0 19.84-16.64 35.84-36.48 35.84zM832 502.4c-2.56 0-4.48 1.28-5.76 3.2-2.56 3.2-1.92 8.32 1.28 10.88 0.64 0.64 1.28 0.64 1.28 1.28 3.2 3.2 7.68 3.2 10.88 0s3.2-7.68 0-10.88c-1.28-1.28-1.92-1.92-3.2-2.56-1.28-1.92-3.2-1.92-4.48-1.92z m-28.8 1.92c-1.92 0-3.84 0.64-5.12 1.92-1.28 1.28-1.92 1.92-2.56 3.2-2.56 3.2-1.92 8.32 1.28 10.88 3.2 2.56 8.32 1.92 10.88-1.28 0.64-0.64 0.64-1.28 1.28-1.28 3.2-3.2 3.2-7.68 0-10.88-1.92-1.92-3.84-2.56-5.76-2.56z m33.28 28.16c-2.56 0-4.48 1.28-5.76 3.2-0.64 0.64-0.64 1.28-1.28 1.28-9.6 8.96 1.28 19.84 10.24 10.88 1.28-1.28 1.92-1.92 2.56-3.2 2.56-3.2 1.92-8.32-1.28-10.88-1.28-0.64-3.2-1.28-4.48-1.28z m-33.28 2.56c-1.92 0-3.84 0.64-5.12 1.92-3.2 2.56-3.2 7.68-0.64 10.24l0.64 0.64 2.56 2.56c3.2 2.56 8.32 1.92 10.88-1.28 2.56-3.2 1.92-8.32-1.28-10.88-0.64-0.64-1.28-0.64-1.28-1.28-1.92-1.28-3.84-1.92-5.76-1.92zM508.16 440.96c-4.48 0-7.68 3.2-7.68 7.68v45.44c0 4.48 3.2 7.68 7.68 7.68s7.68-3.2 7.68-7.68v-45.44c-0.64-3.84-3.84-7.68-7.68-7.68zM560.64 464.64c-4.48 0-7.68 3.2-7.68 7.68V505.6c0 4.48 3.2 7.68 7.68 7.68s7.68-3.2 7.68-7.68v-33.28c-0.64-4.48-3.84-7.68-7.68-7.68zM455.68 464.64c-4.48 0-7.68 3.2-7.68 7.68V505.6c0 4.48 3.2 7.68 7.68 7.68s7.68-3.2 7.68-7.68v-33.28c0-4.48-3.2-7.68-7.68-7.68z"  horiz-adv-x="1024" />

    
    </font>
</defs>
</svg>
